<?xml version="1.0" encoding="UTF-8" standalone="no"?>
<!-- Creator: fig2dev Version 3.2 Patchlevel 5 -->

<!-- CreationDate: Sun Apr 18 19:49:08 2010 -->

<!-- Magnification: 1.000 -->

<svg
   xmlns:dc="http://purl.org/dc/elements/1.1/"
   xmlns:cc="http://creativecommons.org/ns#"
   xmlns:rdf="http://www.w3.org/1999/02/22-rdf-syntax-ns#"
   xmlns:svg="http://www.w3.org/2000/svg"
   xmlns="http://www.w3.org/2000/svg"
   xmlns:sodipodi="http://sodipodi.sourceforge.net/DTD/sodipodi-0.dtd"
   xmlns:inkscape="http://www.inkscape.org/namespaces/inkscape"
   width="7.8in"
   height="9.7in"
   viewBox="442 963 9316 11644"
   id="svg3533"
   version="1.1"
   inkscape:version="0.48.1 "
   sodipodi:docname="Wallace_tree_8x8.svg">
  <metadata
     id="metadata4079">
    <rdf:RDF>
      <cc:Work
         rdf:about="">
        <dc:format>image/svg+xml</dc:format>
        <dc:type
           rdf:resource="http://purl.org/dc/dcmitype/StillImage" />
      </cc:Work>
    </rdf:RDF>
  </metadata>
  <defs
     id="defs4077" />
  <sodipodi:namedview
     pagecolor="#ffffff"
     bordercolor="#666666"
     borderopacity="1"
     objecttolerance="10"
     gridtolerance="10"
     guidetolerance="10"
     inkscape:pageopacity="0"
     inkscape:pageshadow="2"
     inkscape:window-width="1366"
     inkscape:window-height="721"
     id="namedview4075"
     showgrid="false"
     inkscape:zoom="6.7372671"
     inkscape:cx="422.62818"
     inkscape:cy="235.35858"
     inkscape:window-x="-4"
     inkscape:window-y="-4"
     inkscape:window-maximized="1"
     inkscape:current-layer="svg3533" />
  <g
     style="stroke-width:.025in; stroke:black; fill:none"
     id="g3535">
    <!-- Circle -->
    <circle
       cx="9600"
       cy="1200"
       r="150"
       style="fill:#000000;stroke:#000000;stroke-width:7;"
       id="circle3537"
       d="m 9750,1200 c 0,82.8427 -67.1573,150 -150,150 -82.8427,0 -150,-67.1573 -150,-150 0,-82.8427 67.1573,-150 150,-150 82.8427,0 150,67.1573 150,150 z" />
    <!-- Circle -->
    <circle
       cx="9000"
       cy="1200"
       r="150"
       style="fill:#000000;stroke:#000000;stroke-width:7;"
       id="circle3539"
       d="m 9150,1200 c 0,82.8427 -67.1573,150 -150,150 -82.8427,0 -150,-67.1573 -150,-150 0,-82.8427 67.1573,-150 150,-150 82.8427,0 150,67.1573 150,150 z" />
    <!-- Circle -->
    <circle
       cx="8400"
       cy="1200"
       r="150"
       style="fill:#000000;stroke:#000000;stroke-width:7;"
       id="circle3541"
       d="m 8550,1200 c 0,82.8427 -67.1573,150 -150,150 -82.8427,0 -150,-67.1573 -150,-150 0,-82.8427 67.1573,-150 150,-150 82.8427,0 150,67.1573 150,150 z" />
    <!-- Circle -->
    <circle
       cx="7800"
       cy="1200"
       r="150"
       style="fill:#000000;stroke:#000000;stroke-width:7;"
       id="circle3543"
       d="m 7950,1200 c 0,82.8427 -67.1573,150 -150,150 -82.8427,0 -150,-67.1573 -150,-150 0,-82.8427 67.1573,-150 150,-150 82.8427,0 150,67.1573 150,150 z" />
    <!-- Circle -->
    <circle
       cx="7200"
       cy="1200"
       r="150"
       style="fill:#000000;stroke:#000000;stroke-width:7;"
       id="circle3545"
       d="m 7350,1200 c 0,82.8427 -67.1573,150 -150,150 -82.8427,0 -150,-67.1573 -150,-150 0,-82.8427 67.1573,-150 150,-150 82.8427,0 150,67.1573 150,150 z" />
    <!-- Circle -->
    <circle
       cx="6600"
       cy="1200"
       r="150"
       style="fill:#000000;stroke:#000000;stroke-width:7;"
       id="circle3547"
       d="m 6750,1200 c 0,82.8427 -67.1573,150 -150,150 -82.8427,0 -150,-67.1573 -150,-150 0,-82.8427 67.1573,-150 150,-150 82.8427,0 150,67.1573 150,150 z" />
    <!-- Circle -->
    <circle
       cx="6000"
       cy="1200"
       r="150"
       style="fill:#000000;stroke:#000000;stroke-width:7;"
       id="circle3549"
       d="m 6150,1200 c 0,82.8427 -67.1573,150 -150,150 -82.8427,0 -150,-67.1573 -150,-150 0,-82.8427 67.1573,-150 150,-150 82.8427,0 150,67.1573 150,150 z" />
    <!-- Circle -->
    <circle
       cx="5400"
       cy="1200"
       r="150"
       style="fill:#000000;stroke:#000000;stroke-width:7;"
       id="circle3551"
       d="m 5550,1200 c 0,82.8427 -67.1573,150 -150,150 -82.8427,0 -150,-67.1573 -150,-150 0,-82.8427 67.1573,-150 150,-150 82.8427,0 150,67.1573 150,150 z" />
    <!-- Circle -->
    <circle
       cx="9000"
       cy="1650"
       r="150"
       style="fill:#000000;stroke:#000000;stroke-width:7;"
       id="circle3553"
       d="m 9150,1650 c 0,82.8427 -67.1573,150 -150,150 -82.8427,0 -150,-67.1573 -150,-150 0,-82.8427 67.1573,-150 150,-150 82.8427,0 150,67.1573 150,150 z" />
    <!-- Circle -->
    <circle
       cx="8400"
       cy="1650"
       r="150"
       style="fill:#000000;stroke:#000000;stroke-width:7;"
       id="circle3555"
       d="m 8550,1650 c 0,82.8427 -67.1573,150 -150,150 -82.8427,0 -150,-67.1573 -150,-150 0,-82.8427 67.1573,-150 150,-150 82.8427,0 150,67.1573 150,150 z" />
    <!-- Circle -->
    <circle
       cx="7800"
       cy="1650"
       r="150"
       style="fill:#000000;stroke:#000000;stroke-width:7;"
       id="circle3557"
       d="m 7950,1650 c 0,82.8427 -67.1573,150 -150,150 -82.8427,0 -150,-67.1573 -150,-150 0,-82.8427 67.1573,-150 150,-150 82.8427,0 150,67.1573 150,150 z" />
    <!-- Circle -->
    <circle
       cx="7200"
       cy="1650"
       r="150"
       style="fill:#000000;stroke:#000000;stroke-width:7;"
       id="circle3559"
       d="m 7350,1650 c 0,82.8427 -67.1573,150 -150,150 -82.8427,0 -150,-67.1573 -150,-150 0,-82.8427 67.1573,-150 150,-150 82.8427,0 150,67.1573 150,150 z" />
    <!-- Circle -->
    <circle
       cx="6600"
       cy="1650"
       r="150"
       style="fill:#000000;stroke:#000000;stroke-width:7;"
       id="circle3561"
       d="m 6750,1650 c 0,82.8427 -67.1573,150 -150,150 -82.8427,0 -150,-67.1573 -150,-150 0,-82.8427 67.1573,-150 150,-150 82.8427,0 150,67.1573 150,150 z" />
    <!-- Circle -->
    <circle
       cx="6000"
       cy="1650"
       r="150"
       style="fill:#000000;stroke:#000000;stroke-width:7;"
       id="circle3563"
       d="m 6150,1650 c 0,82.8427 -67.1573,150 -150,150 -82.8427,0 -150,-67.1573 -150,-150 0,-82.8427 67.1573,-150 150,-150 82.8427,0 150,67.1573 150,150 z" />
    <!-- Circle -->
    <circle
       cx="5400"
       cy="1650"
       r="150"
       style="fill:#000000;stroke:#000000;stroke-width:7;"
       id="circle3565"
       d="m 5550,1650 c 0,82.8427 -67.1573,150 -150,150 -82.8427,0 -150,-67.1573 -150,-150 0,-82.8427 67.1573,-150 150,-150 82.8427,0 150,67.1573 150,150 z" />
    <!-- Circle -->
    <circle
       cx="4800"
       cy="1650"
       r="150"
       style="fill:#000000;stroke:#000000;stroke-width:7;"
       id="circle3567"
       d="m 4950,1650 c 0,82.8427 -67.1573,150 -150,150 -82.8427,0 -150,-67.1573 -150,-150 0,-82.8427 67.1573,-150 150,-150 82.8427,0 150,67.1573 150,150 z" />
    <!-- Circle -->
    <circle
       cx="8400"
       cy="2100"
       r="150"
       style="fill:#000000;stroke:#000000;stroke-width:7;"
       id="circle3569"
       d="m 8550,2100 c 0,82.8427 -67.1573,150 -150,150 -82.8427,0 -150,-67.1573 -150,-150 0,-82.8427 67.1573,-150 150,-150 82.8427,0 150,67.1573 150,150 z" />
    <!-- Circle -->
    <circle
       cx="7800"
       cy="2100"
       r="150"
       style="fill:#000000;stroke:#000000;stroke-width:7;"
       id="circle3571"
       d="m 7950,2100 c 0,82.8427 -67.1573,150 -150,150 -82.8427,0 -150,-67.1573 -150,-150 0,-82.8427 67.1573,-150 150,-150 82.8427,0 150,67.1573 150,150 z" />
    <!-- Circle -->
    <circle
       cx="7200"
       cy="2100"
       r="150"
       style="fill:#000000;stroke:#000000;stroke-width:7;"
       id="circle3573"
       d="m 7350,2100 c 0,82.8427 -67.1573,150 -150,150 -82.8427,0 -150,-67.1573 -150,-150 0,-82.8427 67.1573,-150 150,-150 82.8427,0 150,67.1573 150,150 z" />
    <!-- Circle -->
    <circle
       cx="6600"
       cy="2100"
       r="150"
       style="fill:#000000;stroke:#000000;stroke-width:7;"
       id="circle3575"
       d="m 6750,2100 c 0,82.8427 -67.1573,150 -150,150 -82.8427,0 -150,-67.1573 -150,-150 0,-82.8427 67.1573,-150 150,-150 82.8427,0 150,67.1573 150,150 z" />
    <!-- Circle -->
    <circle
       cx="6000"
       cy="2100"
       r="150"
       style="fill:#000000;stroke:#000000;stroke-width:7;"
       id="circle3577"
       d="m 6150,2100 c 0,82.8427 -67.1573,150 -150,150 -82.8427,0 -150,-67.1573 -150,-150 0,-82.8427 67.1573,-150 150,-150 82.8427,0 150,67.1573 150,150 z" />
    <!-- Circle -->
    <circle
       cx="5400"
       cy="2100"
       r="150"
       style="fill:#000000;stroke:#000000;stroke-width:7;"
       id="circle3579"
       d="m 5550,2100 c 0,82.8427 -67.1573,150 -150,150 -82.8427,0 -150,-67.1573 -150,-150 0,-82.8427 67.1573,-150 150,-150 82.8427,0 150,67.1573 150,150 z" />
    <!-- Circle -->
    <circle
       cx="4800"
       cy="2100"
       r="150"
       style="fill:#000000;stroke:#000000;stroke-width:7;"
       id="circle3581"
       d="m 4950,2100 c 0,82.8427 -67.1573,150 -150,150 -82.8427,0 -150,-67.1573 -150,-150 0,-82.8427 67.1573,-150 150,-150 82.8427,0 150,67.1573 150,150 z" />
    <!-- Circle -->
    <circle
       cx="4200"
       cy="2100"
       r="150"
       style="fill:#000000;stroke:#000000;stroke-width:7;"
       id="circle3583"
       d="m 4350,2100 c 0,82.8427 -67.1573,150 -150,150 -82.8427,0 -150,-67.1573 -150,-150 0,-82.8427 67.1573,-150 150,-150 82.8427,0 150,67.1573 150,150 z" />
    <!-- Circle -->
    <circle
       cx="7800"
       cy="2550"
       r="150"
       style="fill:#000000;stroke:#000000;stroke-width:7;"
       id="circle3585"
       d="m 7950,2550 c 0,82.8427 -67.1573,150 -150,150 -82.8427,0 -150,-67.1573 -150,-150 0,-82.8427 67.1573,-150 150,-150 82.8427,0 150,67.1573 150,150 z" />
    <!-- Circle -->
    <circle
       cx="7200"
       cy="2550"
       r="150"
       style="fill:#000000;stroke:#000000;stroke-width:7;"
       id="circle3587"
       d="m 7350,2550 c 0,82.8427 -67.1573,150 -150,150 -82.8427,0 -150,-67.1573 -150,-150 0,-82.8427 67.1573,-150 150,-150 82.8427,0 150,67.1573 150,150 z" />
    <!-- Circle -->
    <circle
       cx="6600"
       cy="2550"
       r="150"
       style="fill:#000000;stroke:#000000;stroke-width:7;"
       id="circle3589"
       d="m 6750,2550 c 0,82.8427 -67.1573,150 -150,150 -82.8427,0 -150,-67.1573 -150,-150 0,-82.8427 67.1573,-150 150,-150 82.8427,0 150,67.1573 150,150 z" />
    <!-- Circle -->
    <circle
       cx="6000"
       cy="2550"
       r="150"
       style="fill:#000000;stroke:#000000;stroke-width:7;"
       id="circle3591"
       d="m 6150,2550 c 0,82.8427 -67.1573,150 -150,150 -82.8427,0 -150,-67.1573 -150,-150 0,-82.8427 67.1573,-150 150,-150 82.8427,0 150,67.1573 150,150 z" />
    <!-- Circle -->
    <circle
       cx="5400"
       cy="2550"
       r="150"
       style="fill:#000000;stroke:#000000;stroke-width:7;"
       id="circle3593"
       d="m 5550,2550 c 0,82.8427 -67.1573,150 -150,150 -82.8427,0 -150,-67.1573 -150,-150 0,-82.8427 67.1573,-150 150,-150 82.8427,0 150,67.1573 150,150 z" />
    <!-- Circle -->
    <circle
       cx="4800"
       cy="2550"
       r="150"
       style="fill:#000000;stroke:#000000;stroke-width:7;"
       id="circle3595"
       d="m 4950,2550 c 0,82.8427 -67.1573,150 -150,150 -82.8427,0 -150,-67.1573 -150,-150 0,-82.8427 67.1573,-150 150,-150 82.8427,0 150,67.1573 150,150 z" />
    <!-- Circle -->
    <circle
       cx="4200"
       cy="2550"
       r="150"
       style="fill:#000000;stroke:#000000;stroke-width:7;"
       id="circle3597"
       d="m 4350,2550 c 0,82.8427 -67.1573,150 -150,150 -82.8427,0 -150,-67.1573 -150,-150 0,-82.8427 67.1573,-150 150,-150 82.8427,0 150,67.1573 150,150 z" />
    <!-- Circle -->
    <circle
       cx="3600"
       cy="2550"
       r="150"
       style="fill:#000000;stroke:#000000;stroke-width:7;"
       id="circle3599"
       d="m 3750,2550 c 0,82.8427 -67.1573,150 -150,150 -82.8427,0 -150,-67.1573 -150,-150 0,-82.8427 67.1573,-150 150,-150 82.8427,0 150,67.1573 150,150 z" />
    <!-- Circle -->
    <circle
       cx="7200"
       cy="3000"
       r="150"
       style="fill:#000000;stroke:#000000;stroke-width:7;"
       id="circle3601"
       d="m 7350,3000 c 0,82.8427 -67.1573,150 -150,150 -82.8427,0 -150,-67.1573 -150,-150 0,-82.8427 67.1573,-150 150,-150 82.8427,0 150,67.1573 150,150 z" />
    <!-- Circle -->
    <circle
       cx="6600"
       cy="3000"
       r="150"
       style="fill:#000000;stroke:#000000;stroke-width:7;"
       id="circle3603"
       d="m 6750,3000 c 0,82.8427 -67.1573,150 -150,150 -82.8427,0 -150,-67.1573 -150,-150 0,-82.8427 67.1573,-150 150,-150 82.8427,0 150,67.1573 150,150 z" />
    <!-- Circle -->
    <circle
       cx="6000"
       cy="3000"
       r="150"
       style="fill:#000000;stroke:#000000;stroke-width:7;"
       id="circle3605"
       d="m 6150,3000 c 0,82.8427 -67.1573,150 -150,150 -82.8427,0 -150,-67.1573 -150,-150 0,-82.8427 67.1573,-150 150,-150 82.8427,0 150,67.1573 150,150 z" />
    <!-- Circle -->
    <circle
       cx="5400"
       cy="3000"
       r="150"
       style="fill:#000000;stroke:#000000;stroke-width:7;"
       id="circle3607"
       d="m 5550,3000 c 0,82.8427 -67.1573,150 -150,150 -82.8427,0 -150,-67.1573 -150,-150 0,-82.8427 67.1573,-150 150,-150 82.8427,0 150,67.1573 150,150 z" />
    <!-- Circle -->
    <circle
       cx="4800"
       cy="3000"
       r="150"
       style="fill:#000000;stroke:#000000;stroke-width:7;"
       id="circle3609"
       d="m 4950,3000 c 0,82.8427 -67.1573,150 -150,150 -82.8427,0 -150,-67.1573 -150,-150 0,-82.8427 67.1573,-150 150,-150 82.8427,0 150,67.1573 150,150 z" />
    <!-- Circle -->
    <circle
       cx="4200"
       cy="3000"
       r="150"
       style="fill:#000000;stroke:#000000;stroke-width:7;"
       id="circle3611"
       d="m 4350,3000 c 0,82.8427 -67.1573,150 -150,150 -82.8427,0 -150,-67.1573 -150,-150 0,-82.8427 67.1573,-150 150,-150 82.8427,0 150,67.1573 150,150 z" />
    <!-- Circle -->
    <circle
       cx="3600"
       cy="3000"
       r="150"
       style="fill:#000000;stroke:#000000;stroke-width:7;"
       id="circle3613"
       d="m 3750,3000 c 0,82.8427 -67.1573,150 -150,150 -82.8427,0 -150,-67.1573 -150,-150 0,-82.8427 67.1573,-150 150,-150 82.8427,0 150,67.1573 150,150 z" />
    <!-- Circle -->
    <circle
       cx="3000"
       cy="3000"
       r="150"
       style="fill:#000000;stroke:#000000;stroke-width:7;"
       id="circle3615"
       d="m 3150,3000 c 0,82.8427 -67.1573,150 -150,150 -82.8427,0 -150,-67.1573 -150,-150 0,-82.8427 67.1573,-150 150,-150 82.8427,0 150,67.1573 150,150 z" />
    <!-- Circle -->
    <circle
       cx="6600"
       cy="3450"
       r="150"
       style="fill:#000000;stroke:#000000;stroke-width:7;"
       id="circle3617"
       d="m 6750,3450 c 0,82.8427 -67.1573,150 -150,150 -82.8427,0 -150,-67.1573 -150,-150 0,-82.8427 67.1573,-150 150,-150 82.8427,0 150,67.1573 150,150 z" />
    <!-- Circle -->
    <circle
       cx="6000"
       cy="3450"
       r="150"
       style="fill:#000000;stroke:#000000;stroke-width:7;"
       id="circle3619"
       d="m 6150,3450 c 0,82.8427 -67.1573,150 -150,150 -82.8427,0 -150,-67.1573 -150,-150 0,-82.8427 67.1573,-150 150,-150 82.8427,0 150,67.1573 150,150 z" />
    <!-- Circle -->
    <circle
       cx="5400"
       cy="3450"
       r="150"
       style="fill:#000000;stroke:#000000;stroke-width:7;"
       id="circle3621"
       d="m 5550,3450 c 0,82.8427 -67.1573,150 -150,150 -82.8427,0 -150,-67.1573 -150,-150 0,-82.8427 67.1573,-150 150,-150 82.8427,0 150,67.1573 150,150 z" />
    <!-- Circle -->
    <circle
       cx="4800"
       cy="3450"
       r="150"
       style="fill:#000000;stroke:#000000;stroke-width:7;"
       id="circle3623"
       d="m 4950,3450 c 0,82.8427 -67.1573,150 -150,150 -82.8427,0 -150,-67.1573 -150,-150 0,-82.8427 67.1573,-150 150,-150 82.8427,0 150,67.1573 150,150 z" />
    <!-- Circle -->
    <circle
       cx="4200"
       cy="3450"
       r="150"
       style="fill:#000000;stroke:#000000;stroke-width:7;"
       id="circle3625"
       d="m 4350,3450 c 0,82.8427 -67.1573,150 -150,150 -82.8427,0 -150,-67.1573 -150,-150 0,-82.8427 67.1573,-150 150,-150 82.8427,0 150,67.1573 150,150 z" />
    <!-- Circle -->
    <circle
       cx="3600"
       cy="3450"
       r="150"
       style="fill:#000000;stroke:#000000;stroke-width:7;"
       id="circle3627"
       d="m 3750,3450 c 0,82.8427 -67.1573,150 -150,150 -82.8427,0 -150,-67.1573 -150,-150 0,-82.8427 67.1573,-150 150,-150 82.8427,0 150,67.1573 150,150 z" />
    <!-- Circle -->
    <circle
       cx="3000"
       cy="3450"
       r="150"
       style="fill:#000000;stroke:#000000;stroke-width:7;"
       id="circle3629"
       d="m 3150,3450 c 0,82.8427 -67.1573,150 -150,150 -82.8427,0 -150,-67.1573 -150,-150 0,-82.8427 67.1573,-150 150,-150 82.8427,0 150,67.1573 150,150 z" />
    <!-- Circle -->
    <circle
       cx="2400"
       cy="3450"
       r="150"
       style="fill:#000000;stroke:#000000;stroke-width:7;"
       id="circle3631"
       d="m 2550,3450 c 0,82.8427 -67.1573,150 -150,150 -82.8427,0 -150,-67.1573 -150,-150 0,-82.8427 67.1573,-150 150,-150 82.8427,0 150,67.1573 150,150 z" />
    <!-- Circle -->
    <circle
       cx="6000"
       cy="3900"
       r="150"
       style="fill:#000000;stroke:#000000;stroke-width:7;"
       id="circle3633"
       d="m 6150,3900 c 0,82.8427 -67.1573,150 -150,150 -82.8427,0 -150,-67.1573 -150,-150 0,-82.8427 67.1573,-150 150,-150 82.8427,0 150,67.1573 150,150 z" />
    <!-- Circle -->
    <circle
       cx="5400"
       cy="4350"
       r="150"
       style="fill:#000000;stroke:#000000;stroke-width:7;"
       id="circle3635"
       d="m 5550,4350 c 0,82.8427 -67.1573,150 -150,150 -82.8427,0 -150,-67.1573 -150,-150 0,-82.8427 67.1573,-150 150,-150 82.8427,0 150,67.1573 150,150 z" />
    <!-- Circle -->
    <circle
       cx="5400"
       cy="3900"
       r="150"
       style="fill:#000000;stroke:#000000;stroke-width:7;"
       id="circle3637"
       d="m 5550,3900 c 0,82.8427 -67.1573,150 -150,150 -82.8427,0 -150,-67.1573 -150,-150 0,-82.8427 67.1573,-150 150,-150 82.8427,0 150,67.1573 150,150 z" />
    <!-- Circle -->
    <circle
       cx="4800"
       cy="3900"
       r="150"
       style="fill:#000000;stroke:#000000;stroke-width:7;"
       id="circle3639"
       d="m 4950,3900 c 0,82.8427 -67.1573,150 -150,150 -82.8427,0 -150,-67.1573 -150,-150 0,-82.8427 67.1573,-150 150,-150 82.8427,0 150,67.1573 150,150 z" />
    <!-- Circle -->
    <circle
       cx="4200"
       cy="3900"
       r="150"
       style="fill:#000000;stroke:#000000;stroke-width:7;"
       id="circle3641"
       d="m 4350,3900 c 0,82.8427 -67.1573,150 -150,150 -82.8427,0 -150,-67.1573 -150,-150 0,-82.8427 67.1573,-150 150,-150 82.8427,0 150,67.1573 150,150 z" />
    <!-- Circle -->
    <circle
       cx="3600"
       cy="3900"
       r="150"
       style="fill:#000000;stroke:#000000;stroke-width:7;"
       id="circle3643"
       d="m 3750,3900 c 0,82.8427 -67.1573,150 -150,150 -82.8427,0 -150,-67.1573 -150,-150 0,-82.8427 67.1573,-150 150,-150 82.8427,0 150,67.1573 150,150 z" />
    <!-- Circle -->
    <circle
       cx="3000"
       cy="3900"
       r="150"
       style="fill:#000000;stroke:#000000;stroke-width:7;"
       id="circle3645"
       d="m 3150,3900 c 0,82.8427 -67.1573,150 -150,150 -82.8427,0 -150,-67.1573 -150,-150 0,-82.8427 67.1573,-150 150,-150 82.8427,0 150,67.1573 150,150 z" />
    <!-- Circle -->
    <circle
       cx="2400"
       cy="3900"
       r="150"
       style="fill:#000000;stroke:#000000;stroke-width:7;"
       id="circle3647"
       d="m 2550,3900 c 0,82.8427 -67.1573,150 -150,150 -82.8427,0 -150,-67.1573 -150,-150 0,-82.8427 67.1573,-150 150,-150 82.8427,0 150,67.1573 150,150 z" />
    <!-- Circle -->
    <circle
       cx="1800"
       cy="3900"
       r="150"
       style="fill:#000000;stroke:#000000;stroke-width:7;"
       id="circle3649"
       d="m 1950,3900 c 0,82.8427 -67.1573,150 -150,150 -82.8427,0 -150,-67.1573 -150,-150 0,-82.8427 67.1573,-150 150,-150 82.8427,0 150,67.1573 150,150 z" />
    <!-- Circle -->
    <circle
       cx="4800"
       cy="4350"
       r="150"
       style="fill:#000000;stroke:#000000;stroke-width:7;"
       id="circle3651"
       d="m 4950,4350 c 0,82.8427 -67.1573,150 -150,150 -82.8427,0 -150,-67.1573 -150,-150 0,-82.8427 67.1573,-150 150,-150 82.8427,0 150,67.1573 150,150 z" />
    <!-- Circle -->
    <circle
       cx="4200"
       cy="4350"
       r="150"
       style="fill:#000000;stroke:#000000;stroke-width:7;"
       id="circle3653"
       d="m 4350,4350 c 0,82.8427 -67.1573,150 -150,150 -82.8427,0 -150,-67.1573 -150,-150 0,-82.8427 67.1573,-150 150,-150 82.8427,0 150,67.1573 150,150 z" />
    <!-- Circle -->
    <circle
       cx="3600"
       cy="4350"
       r="150"
       style="fill:#000000;stroke:#000000;stroke-width:7;"
       id="circle3655"
       d="m 3750,4350 c 0,82.8427 -67.1573,150 -150,150 -82.8427,0 -150,-67.1573 -150,-150 0,-82.8427 67.1573,-150 150,-150 82.8427,0 150,67.1573 150,150 z" />
    <!-- Circle -->
    <circle
       cx="3000"
       cy="4350"
       r="150"
       style="fill:#000000;stroke:#000000;stroke-width:7;"
       id="circle3657"
       d="m 3150,4350 c 0,82.8427 -67.1573,150 -150,150 -82.8427,0 -150,-67.1573 -150,-150 0,-82.8427 67.1573,-150 150,-150 82.8427,0 150,67.1573 150,150 z" />
    <!-- Circle -->
    <circle
       cx="2400"
       cy="4350"
       r="150"
       style="fill:#000000;stroke:#000000;stroke-width:7;"
       id="circle3659"
       d="m 2550,4350 c 0,82.8427 -67.1573,150 -150,150 -82.8427,0 -150,-67.1573 -150,-150 0,-82.8427 67.1573,-150 150,-150 82.8427,0 150,67.1573 150,150 z" />
    <!-- Circle -->
    <circle
       cx="1800"
       cy="4350"
       r="150"
       style="fill:#000000;stroke:#000000;stroke-width:7;"
       id="circle3661"
       d="m 1950,4350 c 0,82.8427 -67.1573,150 -150,150 -82.8427,0 -150,-67.1573 -150,-150 0,-82.8427 67.1573,-150 150,-150 82.8427,0 150,67.1573 150,150 z" />
    <!-- Circle -->
    <circle
       cx="1200"
       cy="4350"
       r="150"
       style="fill:#000000;stroke:#000000;stroke-width:7;"
       id="circle3663"
       d="m 1350,4350 c 0,82.8427 -67.1573,150 -150,150 -82.8427,0 -150,-67.1573 -150,-150 0,-82.8427 67.1573,-150 150,-150 82.8427,0 150,67.1573 150,150 z" />
    <!-- Circle -->
    <circle
       cx="9600"
       cy="5100"
       r="150"
       style="fill:#000000;stroke:#000000;stroke-width:7;"
       id="circle3665"
       d="m 9750,5100 c 0,82.8427 -67.1573,150 -150,150 -82.8427,0 -150,-67.1573 -150,-150 0,-82.8427 67.1573,-150 150,-150 82.8427,0 150,67.1573 150,150 z" />
    <!-- Circle -->
    <circle
       cx="9000"
       cy="5100"
       r="150"
       style="fill:#000000;stroke:#000000;stroke-width:7;"
       id="circle3667"
       d="m 9150,5100 c 0,82.8427 -67.1573,150 -150,150 -82.8427,0 -150,-67.1573 -150,-150 0,-82.8427 67.1573,-150 150,-150 82.8427,0 150,67.1573 150,150 z" />
    <!-- Circle -->
    <circle
       cx="8400"
       cy="5100"
       r="150"
       style="fill:#000000;stroke:#000000;stroke-width:7;"
       id="circle3669"
       d="m 8550,5100 c 0,82.8427 -67.1573,150 -150,150 -82.8427,0 -150,-67.1573 -150,-150 0,-82.8427 67.1573,-150 150,-150 82.8427,0 150,67.1573 150,150 z" />
    <!-- Circle -->
    <circle
       cx="8400"
       cy="5550"
       r="150"
       style="fill:#000000;stroke:#000000;stroke-width:7;"
       id="circle3671"
       d="m 8550,5550 c 0,82.8427 -67.1573,150 -150,150 -82.8427,0 -150,-67.1573 -150,-150 0,-82.8427 67.1573,-150 150,-150 82.8427,0 150,67.1573 150,150 z" />
    <!-- Circle -->
    <circle
       cx="7800"
       cy="5100"
       r="150"
       style="fill:#000000;stroke:#000000;stroke-width:7;"
       id="circle3673"
       d="m 7950,5100 c 0,82.8427 -67.1573,150 -150,150 -82.8427,0 -150,-67.1573 -150,-150 0,-82.8427 67.1573,-150 150,-150 82.8427,0 150,67.1573 150,150 z" />
    <!-- Circle -->
    <circle
       cx="7800"
       cy="5550"
       r="150"
       style="fill:#000000;stroke:#000000;stroke-width:7;"
       id="circle3675"
       d="m 7950,5550 c 0,82.8427 -67.1573,150 -150,150 -82.8427,0 -150,-67.1573 -150,-150 0,-82.8427 67.1573,-150 150,-150 82.8427,0 150,67.1573 150,150 z" />
    <!-- Circle -->
    <circle
       cx="7800"
       cy="6000"
       r="150"
       style="fill:#000000;stroke:#000000;stroke-width:7;"
       id="circle3677"
       d="m 7950,6000 c 0,82.8427 -67.1573,150 -150,150 -82.8427,0 -150,-67.1573 -150,-150 0,-82.8427 67.1573,-150 150,-150 82.8427,0 150,67.1573 150,150 z" />
    <!-- Circle -->
    <circle
       cx="7200"
       cy="5100"
       r="150"
       style="fill:#000000;stroke:#000000;stroke-width:7;"
       id="circle3679"
       d="m 7350,5100 c 0,82.8427 -67.1573,150 -150,150 -82.8427,0 -150,-67.1573 -150,-150 0,-82.8427 67.1573,-150 150,-150 82.8427,0 150,67.1573 150,150 z" />
    <!-- Circle -->
    <circle
       cx="7200"
       cy="5550"
       r="150"
       style="fill:#000000;stroke:#000000;stroke-width:7;"
       id="circle3681"
       d="m 7350,5550 c 0,82.8427 -67.1573,150 -150,150 -82.8427,0 -150,-67.1573 -150,-150 0,-82.8427 67.1573,-150 150,-150 82.8427,0 150,67.1573 150,150 z" />
    <!-- Circle -->
    <circle
       cx="7200"
       cy="6000"
       r="150"
       style="fill:#000000;stroke:#000000;stroke-width:7;"
       id="circle3683"
       d="m 7350,6000 c 0,82.8427 -67.1573,150 -150,150 -82.8427,0 -150,-67.1573 -150,-150 0,-82.8427 67.1573,-150 150,-150 82.8427,0 150,67.1573 150,150 z" />
    <!-- Circle -->
    <circle
       cx="6600"
       cy="5100"
       r="150"
       style="fill:#000000;stroke:#000000;stroke-width:7;"
       id="circle3685"
       d="m 6750,5100 c 0,82.8427 -67.1573,150 -150,150 -82.8427,0 -150,-67.1573 -150,-150 0,-82.8427 67.1573,-150 150,-150 82.8427,0 150,67.1573 150,150 z" />
    <!-- Circle -->
    <circle
       cx="6600"
       cy="5550"
       r="150"
       style="fill:#000000;stroke:#000000;stroke-width:7;"
       id="circle3687"
       d="m 6750,5550 c 0,82.8427 -67.1573,150 -150,150 -82.8427,0 -150,-67.1573 -150,-150 0,-82.8427 67.1573,-150 150,-150 82.8427,0 150,67.1573 150,150 z" />
    <!-- Circle -->
    <circle
       cx="6600"
       cy="6000"
       r="150"
       style="fill:#000000;stroke:#000000;stroke-width:7;"
       id="circle3689"
       d="m 6750,6000 c 0,82.8427 -67.1573,150 -150,150 -82.8427,0 -150,-67.1573 -150,-150 0,-82.8427 67.1573,-150 150,-150 82.8427,0 150,67.1573 150,150 z" />
    <!-- Circle -->
    <circle
       cx="6600"
       cy="6450"
       r="150"
       style="fill:#000000;stroke:#000000;stroke-width:7;"
       id="circle3691"
       d="m 6750,6450 c 0,82.8427 -67.1573,150 -150,150 -82.8427,0 -150,-67.1573 -150,-150 0,-82.8427 67.1573,-150 150,-150 82.8427,0 150,67.1573 150,150 z" />
    <!-- Circle -->
    <circle
       cx="6000"
       cy="5100"
       r="150"
       style="fill:#000000;stroke:#000000;stroke-width:7;"
       id="circle3693"
       d="m 6150,5100 c 0,82.8427 -67.1573,150 -150,150 -82.8427,0 -150,-67.1573 -150,-150 0,-82.8427 67.1573,-150 150,-150 82.8427,0 150,67.1573 150,150 z" />
    <!-- Circle -->
    <circle
       cx="6000"
       cy="5550"
       r="150"
       style="fill:#000000;stroke:#000000;stroke-width:7;"
       id="circle3695"
       d="m 6150,5550 c 0,82.8427 -67.1573,150 -150,150 -82.8427,0 -150,-67.1573 -150,-150 0,-82.8427 67.1573,-150 150,-150 82.8427,0 150,67.1573 150,150 z" />
    <!-- Circle -->
    <circle
       cx="6000"
       cy="6000"
       r="150"
       style="fill:#000000;stroke:#000000;stroke-width:7;"
       id="circle3697"
       d="m 6150,6000 c 0,82.8427 -67.1573,150 -150,150 -82.8427,0 -150,-67.1573 -150,-150 0,-82.8427 67.1573,-150 150,-150 82.8427,0 150,67.1573 150,150 z" />
    <!-- Circle -->
    <circle
       cx="6000"
       cy="6450"
       r="150"
       style="fill:#000000;stroke:#000000;stroke-width:7;"
       id="circle3699"
       d="m 6150,6450 c 0,82.8427 -67.1573,150 -150,150 -82.8427,0 -150,-67.1573 -150,-150 0,-82.8427 67.1573,-150 150,-150 82.8427,0 150,67.1573 150,150 z" />
    <!-- Circle -->
    <circle
       cx="6000"
       cy="6900"
       r="150"
       style="fill:#000000;stroke:#000000;stroke-width:7;"
       id="circle3701"
       d="m 6150,6900 c 0,82.8427 -67.1573,150 -150,150 -82.8427,0 -150,-67.1573 -150,-150 0,-82.8427 67.1573,-150 150,-150 82.8427,0 150,67.1573 150,150 z" />
    <!-- Circle -->
    <circle
       cx="5400"
       cy="5100"
       r="150"
       style="fill:#000000;stroke:#000000;stroke-width:7;"
       id="circle3703"
       d="m 5550,5100 c 0,82.8427 -67.1573,150 -150,150 -82.8427,0 -150,-67.1573 -150,-150 0,-82.8427 67.1573,-150 150,-150 82.8427,0 150,67.1573 150,150 z" />
    <!-- Circle -->
    <circle
       cx="5400"
       cy="5550"
       r="150"
       style="fill:#000000;stroke:#000000;stroke-width:7;"
       id="circle3705"
       d="m 5550,5550 c 0,82.8427 -67.1573,150 -150,150 -82.8427,0 -150,-67.1573 -150,-150 0,-82.8427 67.1573,-150 150,-150 82.8427,0 150,67.1573 150,150 z" />
    <!-- Circle -->
    <circle
       cx="5400"
       cy="6000"
       r="150"
       style="fill:#000000;stroke:#000000;stroke-width:7;"
       id="circle3707"
       d="m 5550,6000 c 0,82.8427 -67.1573,150 -150,150 -82.8427,0 -150,-67.1573 -150,-150 0,-82.8427 67.1573,-150 150,-150 82.8427,0 150,67.1573 150,150 z" />
    <!-- Circle -->
    <circle
       cx="5400"
       cy="6450"
       r="150"
       style="fill:#000000;stroke:#000000;stroke-width:7;"
       id="circle3709"
       d="m 5550,6450 c 0,82.8427 -67.1573,150 -150,150 -82.8427,0 -150,-67.1573 -150,-150 0,-82.8427 67.1573,-150 150,-150 82.8427,0 150,67.1573 150,150 z" />
    <!-- Circle -->
    <circle
       cx="5400"
       cy="6900"
       r="150"
       style="fill:#000000;stroke:#000000;stroke-width:7;"
       id="circle3711"
       d="m 5550,6900 c 0,82.8427 -67.1573,150 -150,150 -82.8427,0 -150,-67.1573 -150,-150 0,-82.8427 67.1573,-150 150,-150 82.8427,0 150,67.1573 150,150 z" />
    <!-- Circle -->
    <circle
       cx="5400"
       cy="7350"
       r="150"
       style="fill:#000000;stroke:#000000;stroke-width:7;"
       id="circle3713"
       d="m 5550,7350 c 0,82.8427 -67.1573,150 -150,150 -82.8427,0 -150,-67.1573 -150,-150 0,-82.8427 67.1573,-150 150,-150 82.8427,0 150,67.1573 150,150 z" />
    <!-- Circle -->
    <circle
       cx="4800"
       cy="5550"
       r="150"
       style="fill:#000000;stroke:#000000;stroke-width:7;"
       id="circle3715"
       d="m 4950,5550 c 0,82.8427 -67.1573,150 -150,150 -82.8427,0 -150,-67.1573 -150,-150 0,-82.8427 67.1573,-150 150,-150 82.8427,0 150,67.1573 150,150 z" />
    <!-- Circle -->
    <circle
       cx="4800"
       cy="6000"
       r="150"
       style="fill:#000000;stroke:#000000;stroke-width:7;"
       id="circle3717"
       d="m 4950,6000 c 0,82.8427 -67.1573,150 -150,150 -82.8427,0 -150,-67.1573 -150,-150 0,-82.8427 67.1573,-150 150,-150 82.8427,0 150,67.1573 150,150 z" />
    <!-- Circle -->
    <circle
       cx="4800"
       cy="6450"
       r="150"
       style="fill:#000000;stroke:#000000;stroke-width:7;"
       id="circle3719"
       d="m 4950,6450 c 0,82.8427 -67.1573,150 -150,150 -82.8427,0 -150,-67.1573 -150,-150 0,-82.8427 67.1573,-150 150,-150 82.8427,0 150,67.1573 150,150 z" />
    <!-- Circle -->
    <circle
       cx="4800"
       cy="6900"
       r="150"
       style="fill:#000000;stroke:#000000;stroke-width:7;"
       id="circle3721"
       d="m 4950,6900 c 0,82.8427 -67.1573,150 -150,150 -82.8427,0 -150,-67.1573 -150,-150 0,-82.8427 67.1573,-150 150,-150 82.8427,0 150,67.1573 150,150 z" />
    <!-- Circle -->
    <circle
       cx="4800"
       cy="7350"
       r="150"
       style="fill:#000000;stroke:#000000;stroke-width:7;"
       id="circle3723"
       d="m 4950,7350 c 0,82.8427 -67.1573,150 -150,150 -82.8427,0 -150,-67.1573 -150,-150 0,-82.8427 67.1573,-150 150,-150 82.8427,0 150,67.1573 150,150 z" />
    <!-- Circle -->
    <circle
       cx="4800"
       cy="5100"
       r="150"
       style="fill:#000000;stroke:#000000;stroke-width:7;"
       id="circle3725"
       d="m 4950,5100 c 0,82.8427 -67.1573,150 -150,150 -82.8427,0 -150,-67.1573 -150,-150 0,-82.8427 67.1573,-150 150,-150 82.8427,0 150,67.1573 150,150 z" />
    <!-- Circle -->
    <circle
       cx="4200"
       cy="7350"
       r="150"
       style="fill:#000000;stroke:#000000;stroke-width:7;"
       id="circle3727"
       d="m 4350,7350 c 0,82.8427 -67.1573,150 -150,150 -82.8427,0 -150,-67.1573 -150,-150 0,-82.8427 67.1573,-150 150,-150 82.8427,0 150,67.1573 150,150 z" />
    <!-- Circle -->
    <circle
       cx="4200"
       cy="6900"
       r="150"
       style="fill:#000000;stroke:#000000;stroke-width:7;"
       id="circle3729"
       d="m 4350,6900 c 0,82.8427 -67.1573,150 -150,150 -82.8427,0 -150,-67.1573 -150,-150 0,-82.8427 67.1573,-150 150,-150 82.8427,0 150,67.1573 150,150 z" />
    <!-- Circle -->
    <circle
       cx="4200"
       cy="6450"
       r="150"
       style="fill:#000000;stroke:#000000;stroke-width:7;"
       id="circle3731"
       d="m 4350,6450 c 0,82.8427 -67.1573,150 -150,150 -82.8427,0 -150,-67.1573 -150,-150 0,-82.8427 67.1573,-150 150,-150 82.8427,0 150,67.1573 150,150 z" />
    <!-- Circle -->
    <circle
       cx="4200"
       cy="6000"
       r="150"
       style="fill:#000000;stroke:#000000;stroke-width:7;"
       id="circle3733"
       d="m 4350,6000 c 0,82.8427 -67.1573,150 -150,150 -82.8427,0 -150,-67.1573 -150,-150 0,-82.8427 67.1573,-150 150,-150 82.8427,0 150,67.1573 150,150 z" />
    <!-- Circle -->
    <circle
       cx="4200"
       cy="5550"
       r="150"
       style="fill:#000000;stroke:#000000;stroke-width:7;"
       id="circle3735"
       d="m 4350,5550 c 0,82.8427 -67.1573,150 -150,150 -82.8427,0 -150,-67.1573 -150,-150 0,-82.8427 67.1573,-150 150,-150 82.8427,0 150,67.1573 150,150 z" />
    <!-- Circle -->
    <circle
       cx="4200"
       cy="5100"
       r="150"
       style="fill:#000000;stroke:#000000;stroke-width:7;"
       id="circle3737"
       d="m 4350,5100 c 0,82.8427 -67.1573,150 -150,150 -82.8427,0 -150,-67.1573 -150,-150 0,-82.8427 67.1573,-150 150,-150 82.8427,0 150,67.1573 150,150 z" />
    <!-- Circle -->
    <circle
       cx="3600"
       cy="7350"
       r="150"
       style="fill:#000000;stroke:#000000;stroke-width:7;"
       id="circle3739"
       d="m 3750,7350 c 0,82.8427 -67.1573,150 -150,150 -82.8427,0 -150,-67.1573 -150,-150 0,-82.8427 67.1573,-150 150,-150 82.8427,0 150,67.1573 150,150 z" />
    <!-- Circle -->
    <circle
       cx="3600"
       cy="6900"
       r="150"
       style="fill:#000000;stroke:#000000;stroke-width:7;"
       id="circle3741"
       d="m 3750,6900 c 0,82.8427 -67.1573,150 -150,150 -82.8427,0 -150,-67.1573 -150,-150 0,-82.8427 67.1573,-150 150,-150 82.8427,0 150,67.1573 150,150 z" />
    <!-- Circle -->
    <circle
       cx="3600"
       cy="6450"
       r="150"
       style="fill:#000000;stroke:#000000;stroke-width:7;"
       id="circle3743"
       d="m 3750,6450 c 0,82.8427 -67.1573,150 -150,150 -82.8427,0 -150,-67.1573 -150,-150 0,-82.8427 67.1573,-150 150,-150 82.8427,0 150,67.1573 150,150 z" />
    <!-- Circle -->
    <circle
       cx="3600"
       cy="6000"
       r="150"
       style="fill:#000000;stroke:#000000;stroke-width:7;"
       id="circle3745"
       d="m 3750,6000 c 0,82.8427 -67.1573,150 -150,150 -82.8427,0 -150,-67.1573 -150,-150 0,-82.8427 67.1573,-150 150,-150 82.8427,0 150,67.1573 150,150 z" />
    <!-- Circle -->
    <circle
       cx="3000"
       cy="7350"
       r="150"
       style="fill:#000000;stroke:#000000;stroke-width:7;"
       id="circle3747"
       d="m 3150,7350 c 0,82.8427 -67.1573,150 -150,150 -82.8427,0 -150,-67.1573 -150,-150 0,-82.8427 67.1573,-150 150,-150 82.8427,0 150,67.1573 150,150 z" />
    <!-- Circle -->
    <circle
       cx="3000"
       cy="6900"
       r="150"
       style="fill:#000000;stroke:#000000;stroke-width:7;"
       id="circle3749"
       d="m 3150,6900 c 0,82.8427 -67.1573,150 -150,150 -82.8427,0 -150,-67.1573 -150,-150 0,-82.8427 67.1573,-150 150,-150 82.8427,0 150,67.1573 150,150 z" />
    <!-- Circle -->
    <circle
       cx="3000"
       cy="6450"
       r="150"
       style="fill:#000000;stroke:#000000;stroke-width:7;"
       id="circle3751"
       d="m 3150,6450 c 0,82.8427 -67.1573,150 -150,150 -82.8427,0 -150,-67.1573 -150,-150 0,-82.8427 67.1573,-150 150,-150 82.8427,0 150,67.1573 150,150 z" />
    <!-- Circle -->
    <circle
       cx="3000"
       cy="6000"
       r="150"
       style="fill:#000000;stroke:#000000;stroke-width:7;"
       id="circle3753"
       d="m 3150,6000 c 0,82.8427 -67.1573,150 -150,150 -82.8427,0 -150,-67.1573 -150,-150 0,-82.8427 67.1573,-150 150,-150 82.8427,0 150,67.1573 150,150 z" />
    <!-- Circle -->
    <circle
       cx="2400"
       cy="7350"
       r="150"
       style="fill:#000000;stroke:#000000;stroke-width:7;"
       id="circle3755"
       d="m 2550,7350 c 0,82.8427 -67.1573,150 -150,150 -82.8427,0 -150,-67.1573 -150,-150 0,-82.8427 67.1573,-150 150,-150 82.8427,0 150,67.1573 150,150 z" />
    <!-- Circle -->
    <circle
       cx="2400"
       cy="6900"
       r="150"
       style="fill:#000000;stroke:#000000;stroke-width:7;"
       id="circle3757"
       d="m 2550,6900 c 0,82.8427 -67.1573,150 -150,150 -82.8427,0 -150,-67.1573 -150,-150 0,-82.8427 67.1573,-150 150,-150 82.8427,0 150,67.1573 150,150 z" />
    <!-- Circle -->
    <circle
       cx="2400"
       cy="6450"
       r="150"
       style="fill:#000000;stroke:#000000;stroke-width:7;"
       id="circle3759"
       d="m 2550,6450 c 0,82.8427 -67.1573,150 -150,150 -82.8427,0 -150,-67.1573 -150,-150 0,-82.8427 67.1573,-150 150,-150 82.8427,0 150,67.1573 150,150 z" />
    <!-- Circle -->
    <circle
       cx="2400"
       cy="6000"
       r="150"
       style="fill:#000000;stroke:#000000;stroke-width:7;"
       id="circle3761"
       d="m 2550,6000 c 0,82.8427 -67.1573,150 -150,150 -82.8427,0 -150,-67.1573 -150,-150 0,-82.8427 67.1573,-150 150,-150 82.8427,0 150,67.1573 150,150 z" />
    <!-- Circle -->
    <circle
       cx="1800"
       cy="7350"
       r="150"
       style="fill:#000000;stroke:#000000;stroke-width:7;"
       id="circle3763"
       d="m 1950,7350 c 0,82.8427 -67.1573,150 -150,150 -82.8427,0 -150,-67.1573 -150,-150 0,-82.8427 67.1573,-150 150,-150 82.8427,0 150,67.1573 150,150 z" />
    <!-- Circle -->
    <circle
       cx="1800"
       cy="6900"
       r="150"
       style="fill:#000000;stroke:#000000;stroke-width:7;"
       id="circle3765"
       d="m 1950,6900 c 0,82.8427 -67.1573,150 -150,150 -82.8427,0 -150,-67.1573 -150,-150 0,-82.8427 67.1573,-150 150,-150 82.8427,0 150,67.1573 150,150 z" />
    <!-- Circle -->
    <circle
       cx="1200"
       cy="7350"
       r="150"
       style="fill:#000000;stroke:#000000;stroke-width:7;"
       id="circle3767"
       d="m 1350,7350 c 0,82.8427 -67.1573,150 -150,150 -82.8427,0 -150,-67.1573 -150,-150 0,-82.8427 67.1573,-150 150,-150 82.8427,0 150,67.1573 150,150 z" />
    <!-- Circle -->
    <circle
       cx="9600"
       cy="8100"
       r="150"
       style="fill:#000000;stroke:#000000;stroke-width:7;"
       id="circle3769"
       d="m 9750,8100 c 0,82.8427 -67.1573,150 -150,150 -82.8427,0 -150,-67.1573 -150,-150 0,-82.8427 67.1573,-150 150,-150 82.8427,0 150,67.1573 150,150 z" />
    <!-- Circle -->
    <circle
       cx="9000"
       cy="8100"
       r="150"
       style="fill:#000000;stroke:#000000;stroke-width:7;"
       id="circle3771"
       d="m 9150,8100 c 0,82.8427 -67.1573,150 -150,150 -82.8427,0 -150,-67.1573 -150,-150 0,-82.8427 67.1573,-150 150,-150 82.8427,0 150,67.1573 150,150 z" />
    <!-- Circle -->
    <circle
       cx="8400"
       cy="8100"
       r="150"
       style="fill:#000000;stroke:#000000;stroke-width:7;"
       id="circle3773"
       d="m 8550,8100 c 0,82.8427 -67.1573,150 -150,150 -82.8427,0 -150,-67.1573 -150,-150 0,-82.8427 67.1573,-150 150,-150 82.8427,0 150,67.1573 150,150 z" />
    <!-- Circle -->
    <circle
       cx="7800"
       cy="8100"
       r="150"
       style="fill:#000000;stroke:#000000;stroke-width:7;"
       id="circle3775"
       d="m 7950,8100 c 0,82.8427 -67.1573,150 -150,150 -82.8427,0 -150,-67.1573 -150,-150 0,-82.8427 67.1573,-150 150,-150 82.8427,0 150,67.1573 150,150 z" />
    <!-- Circle -->
    <circle
       cx="7800"
       cy="8550"
       r="150"
       style="fill:#000000;stroke:#000000;stroke-width:7;"
       id="circle3777"
       d="m 7950,8550 c 0,82.8427 -67.1573,150 -150,150 -82.8427,0 -150,-67.1573 -150,-150 0,-82.8427 67.1573,-150 150,-150 82.8427,0 150,67.1573 150,150 z" />
    <!-- Circle -->
    <circle
       cx="7200"
       cy="8100"
       r="150"
       style="fill:#000000;stroke:#000000;stroke-width:7;"
       id="circle3779"
       d="m 7350,8100 c 0,82.8427 -67.1573,150 -150,150 -82.8427,0 -150,-67.1573 -150,-150 0,-82.8427 67.1573,-150 150,-150 82.8427,0 150,67.1573 150,150 z" />
    <!-- Circle -->
    <circle
       cx="7200"
       cy="8550"
       r="150"
       style="fill:#000000;stroke:#000000;stroke-width:7;"
       id="circle3781"
       d="m 7350,8550 c 0,82.8427 -67.1573,150 -150,150 -82.8427,0 -150,-67.1573 -150,-150 0,-82.8427 67.1573,-150 150,-150 82.8427,0 150,67.1573 150,150 z" />
    <!-- Circle -->
    <circle
       cx="6600"
       cy="8100"
       r="150"
       style="fill:#000000;stroke:#000000;stroke-width:7;"
       id="circle3783"
       d="m 6750,8100 c 0,82.8427 -67.1573,150 -150,150 -82.8427,0 -150,-67.1573 -150,-150 0,-82.8427 67.1573,-150 150,-150 82.8427,0 150,67.1573 150,150 z" />
    <!-- Circle -->
    <circle
       cx="6600"
       cy="8550"
       r="150"
       style="fill:#000000;stroke:#000000;stroke-width:7;"
       id="circle3785"
       d="m 6750,8550 c 0,82.8427 -67.1573,150 -150,150 -82.8427,0 -150,-67.1573 -150,-150 0,-82.8427 67.1573,-150 150,-150 82.8427,0 150,67.1573 150,150 z" />
    <!-- Circle -->
    <circle
       cx="6600"
       cy="9000"
       r="150"
       style="fill:#000000;stroke:#000000;stroke-width:7;"
       id="circle3787"
       d="m 6750,9000 c 0,82.8427 -67.1573,150 -150,150 -82.8427,0 -150,-67.1573 -150,-150 0,-82.8427 67.1573,-150 150,-150 82.8427,0 150,67.1573 150,150 z" />
    <!-- Circle -->
    <circle
       cx="6000"
       cy="8100"
       r="150"
       style="fill:#000000;stroke:#000000;stroke-width:7;"
       id="circle3789"
       d="m 6150,8100 c 0,82.8427 -67.1573,150 -150,150 -82.8427,0 -150,-67.1573 -150,-150 0,-82.8427 67.1573,-150 150,-150 82.8427,0 150,67.1573 150,150 z" />
    <!-- Circle -->
    <circle
       cx="6000"
       cy="8550"
       r="150"
       style="fill:#000000;stroke:#000000;stroke-width:7;"
       id="circle3791"
       d="m 6150,8550 c 0,82.8427 -67.1573,150 -150,150 -82.8427,0 -150,-67.1573 -150,-150 0,-82.8427 67.1573,-150 150,-150 82.8427,0 150,67.1573 150,150 z" />
    <!-- Circle -->
    <circle
       cx="6000"
       cy="9000"
       r="150"
       style="fill:#000000;stroke:#000000;stroke-width:7;"
       id="circle3793"
       d="m 6150,9000 c 0,82.8427 -67.1573,150 -150,150 -82.8427,0 -150,-67.1573 -150,-150 0,-82.8427 67.1573,-150 150,-150 82.8427,0 150,67.1573 150,150 z" />
    <!-- Circle -->
    <!-- Circle -->
    <circle
       cx="5400"
       cy="8100"
       r="150"
       style="fill:#000000;stroke:#000000;stroke-width:7;"
       id="circle3797"
       d="m 5550,8100 c 0,82.8427 -67.1573,150 -150,150 -82.8427,0 -150,-67.1573 -150,-150 0,-82.8427 67.1573,-150 150,-150 82.8427,0 150,67.1573 150,150 z" />
    <!-- Circle -->
    <circle
       cx="5400"
       cy="8550"
       r="150"
       style="fill:#000000;stroke:#000000;stroke-width:7;"
       id="circle3799"
       d="m 5550,8550 c 0,82.8427 -67.1573,150 -150,150 -82.8427,0 -150,-67.1573 -150,-150 0,-82.8427 67.1573,-150 150,-150 82.8427,0 150,67.1573 150,150 z" />
    <!-- Circle -->
    <circle
       cx="5400"
       cy="9000"
       r="150"
       style="fill:#000000;stroke:#000000;stroke-width:7;"
       id="circle3801"
       d="m 5550,9000 c 0,82.8427 -67.1573,150 -150,150 -82.8427,0 -150,-67.1573 -150,-150 0,-82.8427 67.1573,-150 150,-150 82.8427,0 150,67.1573 150,150 z" />
    <!-- Circle -->
    <circle
       cx="5400"
       cy="9450"
       r="150"
       style="fill:#000000;stroke:#000000;stroke-width:7;"
       id="circle3803"
       d="m 5550,9450 c 0,82.8427 -67.1573,150 -150,150 -82.8427,0 -150,-67.1573 -150,-150 0,-82.8427 67.1573,-150 150,-150 82.8427,0 150,67.1573 150,150 z" />
    <!-- Circle -->
    <circle
       cx="4800"
       cy="8100"
       r="150"
       style="fill:#000000;stroke:#000000;stroke-width:7;"
       id="circle3805"
       d="m 4950,8100 c 0,82.8427 -67.1573,150 -150,150 -82.8427,0 -150,-67.1573 -150,-150 0,-82.8427 67.1573,-150 150,-150 82.8427,0 150,67.1573 150,150 z" />
    <!-- Circle -->
    <circle
       cx="4800"
       cy="8550"
       r="150"
       style="fill:#000000;stroke:#000000;stroke-width:7;"
       id="circle3807"
       d="m 4950,8550 c 0,82.8427 -67.1573,150 -150,150 -82.8427,0 -150,-67.1573 -150,-150 0,-82.8427 67.1573,-150 150,-150 82.8427,0 150,67.1573 150,150 z" />
    <!-- Circle -->
    <circle
       cx="4800"
       cy="9000"
       r="150"
       style="fill:#000000;stroke:#000000;stroke-width:7;"
       id="circle3809"
       d="m 4950,9000 c 0,82.8427 -67.1573,150 -150,150 -82.8427,0 -150,-67.1573 -150,-150 0,-82.8427 67.1573,-150 150,-150 82.8427,0 150,67.1573 150,150 z" />
    <!-- Circle -->
    <circle
       cx="4800"
       cy="9450"
       r="150"
       style="fill:#000000;stroke:#000000;stroke-width:7;"
       id="circle3811"
       d="m 4950,9450 c 0,82.8427 -67.1573,150 -150,150 -82.8427,0 -150,-67.1573 -150,-150 0,-82.8427 67.1573,-150 150,-150 82.8427,0 150,67.1573 150,150 z" />
    <!-- Circle -->
    <circle
       cx="4200"
       cy="9450"
       r="150"
       style="fill:#000000;stroke:#000000;stroke-width:7;"
       id="circle3813"
       d="m 4350,9450 c 0,82.8427 -67.1573,150 -150,150 -82.8427,0 -150,-67.1573 -150,-150 0,-82.8427 67.1573,-150 150,-150 82.8427,0 150,67.1573 150,150 z" />
    <!-- Circle -->
    <circle
       cx="4200"
       cy="9000"
       r="150"
       style="fill:#000000;stroke:#000000;stroke-width:7;"
       id="circle3815"
       d="m 4350,9000 c 0,82.8427 -67.1573,150 -150,150 -82.8427,0 -150,-67.1573 -150,-150 0,-82.8427 67.1573,-150 150,-150 82.8427,0 150,67.1573 150,150 z" />
    <!-- Circle -->
    <circle
       cx="4200"
       cy="8550"
       r="150"
       style="fill:#000000;stroke:#000000;stroke-width:7;"
       id="circle3817"
       d="m 4350,8550 c 0,82.8427 -67.1573,150 -150,150 -82.8427,0 -150,-67.1573 -150,-150 0,-82.8427 67.1573,-150 150,-150 82.8427,0 150,67.1573 150,150 z" />
    <!-- Circle -->
    <circle
       cx="4200"
       cy="8100"
       r="150"
       style="fill:#000000;stroke:#000000;stroke-width:7;"
       id="circle3819"
       d="m 4350,8100 c 0,82.8427 -67.1573,150 -150,150 -82.8427,0 -150,-67.1573 -150,-150 0,-82.8427 67.1573,-150 150,-150 82.8427,0 150,67.1573 150,150 z" />
    <!-- Circle -->
    <circle
       cx="3600"
       cy="9450"
       r="150"
       style="fill:#000000;stroke:#000000;stroke-width:7;"
       id="circle3821"
       d="m 3750,9450 c 0,82.8427 -67.1573,150 -150,150 -82.8427,0 -150,-67.1573 -150,-150 0,-82.8427 67.1573,-150 150,-150 82.8427,0 150,67.1573 150,150 z" />
    <!-- Circle -->
    <circle
       cx="3600"
       cy="9000"
       r="150"
       style="fill:#000000;stroke:#000000;stroke-width:7;"
       id="circle3823"
       d="m 3750,9000 c 0,82.8427 -67.1573,150 -150,150 -82.8427,0 -150,-67.1573 -150,-150 0,-82.8427 67.1573,-150 150,-150 82.8427,0 150,67.1573 150,150 z" />
    <!-- Circle -->
    <circle
       cx="3600"
       cy="8550"
       r="150"
       style="fill:#000000;stroke:#000000;stroke-width:7;"
       id="circle3825"
       d="m 3750,8550 c 0,82.8427 -67.1573,150 -150,150 -82.8427,0 -150,-67.1573 -150,-150 0,-82.8427 67.1573,-150 150,-150 82.8427,0 150,67.1573 150,150 z" />
    <!-- Circle -->
    <circle
       cx="3600"
       cy="8100"
       r="150"
       style="fill:#000000;stroke:#000000;stroke-width:7;"
       id="circle3827"
       d="m 3750,8100 c 0,82.8427 -67.1573,150 -150,150 -82.8427,0 -150,-67.1573 -150,-150 0,-82.8427 67.1573,-150 150,-150 82.8427,0 150,67.1573 150,150 z" />
    <!-- Circle -->
    <circle
       cx="3000"
       cy="9450"
       r="150"
       style="fill:#000000;stroke:#000000;stroke-width:7;"
       id="circle3829"
       d="m 3150,9450 c 0,82.8427 -67.1573,150 -150,150 -82.8427,0 -150,-67.1573 -150,-150 0,-82.8427 67.1573,-150 150,-150 82.8427,0 150,67.1573 150,150 z" />
    <!-- Circle -->
    <circle
       cx="3000"
       cy="9000"
       r="150"
       style="fill:#000000;stroke:#000000;stroke-width:7;"
       id="circle3831"
       d="m 3150,9000 c 0,82.8427 -67.1573,150 -150,150 -82.8427,0 -150,-67.1573 -150,-150 0,-82.8427 67.1573,-150 150,-150 82.8427,0 150,67.1573 150,150 z" />
    <!-- Circle -->
    <circle
       cx="3000"
       cy="8550"
       r="150"
       style="fill:#000000;stroke:#000000;stroke-width:7;"
       id="circle3833"
       d="m 3150,8550 c 0,82.8427 -67.1573,150 -150,150 -82.8427,0 -150,-67.1573 -150,-150 0,-82.8427 67.1573,-150 150,-150 82.8427,0 150,67.1573 150,150 z" />
    <!-- Circle -->
    <circle
       cx="2400"
       cy="9450"
       r="150"
       style="fill:#000000;stroke:#000000;stroke-width:7;"
       id="circle3835"
       d="m 2550,9450 c 0,82.8427 -67.1573,150 -150,150 -82.8427,0 -150,-67.1573 -150,-150 0,-82.8427 67.1573,-150 150,-150 82.8427,0 150,67.1573 150,150 z" />
    <!-- Circle -->
    <circle
       cx="2400"
       cy="9000"
       r="150"
       style="fill:#000000;stroke:#000000;stroke-width:7;"
       id="circle3837"
       d="m 2550,9000 c 0,82.8427 -67.1573,150 -150,150 -82.8427,0 -150,-67.1573 -150,-150 0,-82.8427 67.1573,-150 150,-150 82.8427,0 150,67.1573 150,150 z" />
    <!-- Circle -->
    <circle
       cx="2400"
       cy="8550"
       r="150"
       style="fill:#000000;stroke:#000000;stroke-width:7;"
       id="circle3839"
       d="m 2550,8550 c 0,82.8427 -67.1573,150 -150,150 -82.8427,0 -150,-67.1573 -150,-150 0,-82.8427 67.1573,-150 150,-150 82.8427,0 150,67.1573 150,150 z" />
    <!-- Circle -->
    <circle
       cx="1800"
       cy="9450"
       r="150"
       style="fill:#000000;stroke:#000000;stroke-width:7;"
       id="circle3841"
       d="m 1950,9450 c 0,82.8427 -67.1573,150 -150,150 -82.8427,0 -150,-67.1573 -150,-150 0,-82.8427 67.1573,-150 150,-150 82.8427,0 150,67.1573 150,150 z" />
    <!-- Circle -->
    <circle
       cx="1800"
       cy="9000"
       r="150"
       style="fill:#000000;stroke:#000000;stroke-width:7;"
       id="circle3843"
       d="m 1950,9000 c 0,82.8427 -67.1573,150 -150,150 -82.8427,0 -150,-67.1573 -150,-150 0,-82.8427 67.1573,-150 150,-150 82.8427,0 150,67.1573 150,150 z" />
    <!-- Circle -->
    <circle
       cx="1200"
       cy="9450"
       r="150"
       style="fill:#000000;stroke:#000000;stroke-width:7;"
       id="circle3845"
       d="m 1350,9450 c 0,82.8427 -67.1573,150 -150,150 -82.8427,0 -150,-67.1573 -150,-150 0,-82.8427 67.1573,-150 150,-150 82.8427,0 150,67.1573 150,150 z" />
    <!-- Circle -->
    <circle
       cx="1200"
       cy="9000"
       r="150"
       style="fill:#000000;stroke:#000000;stroke-width:7;"
       id="circle3847"
       d="m 1350,9000 c 0,82.8427 -67.1573,150 -150,150 -82.8427,0 -150,-67.1573 -150,-150 0,-82.8427 67.1573,-150 150,-150 82.8427,0 150,67.1573 150,150 z" />
    <!-- Circle -->
    <circle
       cx="9600"
       cy="10200"
       r="150"
       style="fill:#000000;stroke:#000000;stroke-width:7;"
       id="circle3849"
       d="m 9750,10200 c 0,82.843 -67.1573,150 -150,150 -82.8427,0 -150,-67.157 -150,-150 0,-82.843 67.1573,-150 150,-150 82.8427,0 150,67.157 150,150 z" />
    <!-- Circle -->
    <circle
       cx="9000"
       cy="10200"
       r="150"
       style="fill:#000000;stroke:#000000;stroke-width:7;"
       id="circle3851"
       d="m 9150,10200 c 0,82.843 -67.1573,150 -150,150 -82.8427,0 -150,-67.157 -150,-150 0,-82.843 67.1573,-150 150,-150 82.8427,0 150,67.157 150,150 z" />
    <!-- Circle -->
    <circle
       cx="8400"
       cy="10200"
       r="150"
       style="fill:#000000;stroke:#000000;stroke-width:7;"
       id="circle3853"
       d="m 8550,10200 c 0,82.843 -67.1573,150 -150,150 -82.8427,0 -150,-67.157 -150,-150 0,-82.843 67.1573,-150 150,-150 82.8427,0 150,67.157 150,150 z" />
    <!-- Circle -->
    <circle
       cx="7800"
       cy="10200"
       r="150"
       style="fill:#000000;stroke:#000000;stroke-width:7;"
       id="circle3855"
       d="m 7950,10200 c 0,82.843 -67.1573,150 -150,150 -82.8427,0 -150,-67.157 -150,-150 0,-82.843 67.1573,-150 150,-150 82.8427,0 150,67.157 150,150 z" />
    <!-- Circle -->
    <circle
       cx="7200"
       cy="10200"
       r="150"
       style="fill:#000000;stroke:#000000;stroke-width:7;"
       id="circle3857"
       d="m 7350,10200 c 0,82.843 -67.1573,150 -150,150 -82.8427,0 -150,-67.157 -150,-150 0,-82.843 67.1573,-150 150,-150 82.8427,0 150,67.157 150,150 z" />
    <!-- Circle -->
    <circle
       cx="7200"
       cy="10650"
       r="150"
       style="fill:#000000;stroke:#000000;stroke-width:7;"
       id="circle3859"
       d="m 7350,10650 c 0,82.843 -67.1573,150 -150,150 -82.8427,0 -150,-67.157 -150,-150 0,-82.843 67.1573,-150 150,-150 82.8427,0 150,67.157 150,150 z" />
    <!-- Circle -->
    <circle
       cx="6600"
       cy="10200"
       r="150"
       style="fill:#000000;stroke:#000000;stroke-width:7;"
       id="circle3861"
       d="m 6750,10200 c 0,82.843 -67.1573,150 -150,150 -82.8427,0 -150,-67.157 -150,-150 0,-82.843 67.1573,-150 150,-150 82.8427,0 150,67.157 150,150 z" />
    <!-- Circle -->
    <circle
       cx="6600"
       cy="10650"
       r="150"
       style="fill:#000000;stroke:#000000;stroke-width:7;"
       id="circle3863"
       d="m 6750,10650 c 0,82.843 -67.1573,150 -150,150 -82.8427,0 -150,-67.157 -150,-150 0,-82.843 67.1573,-150 150,-150 82.8427,0 150,67.157 150,150 z" />
    <!-- Circle -->
    <circle
       cx="6000"
       cy="10200"
       r="150"
       style="fill:#000000;stroke:#000000;stroke-width:7;"
       id="circle3865"
       d="m 6150,10200 c 0,82.843 -67.1573,150 -150,150 -82.8427,0 -150,-67.157 -150,-150 0,-82.843 67.1573,-150 150,-150 82.8427,0 150,67.157 150,150 z" />
    <!-- Circle -->
    <circle
       cx="6000"
       cy="10650"
       r="150"
       style="fill:#000000;stroke:#000000;stroke-width:7;"
       id="circle3867"
       d="m 6150,10650 c 0,82.843 -67.1573,150 -150,150 -82.8427,0 -150,-67.157 -150,-150 0,-82.843 67.1573,-150 150,-150 82.8427,0 150,67.157 150,150 z" />
    <!-- Circle -->
    <circle
       cx="6000"
       cy="11100"
       r="150"
       style="fill:#000000;stroke:#000000;stroke-width:7;"
       id="circle3869"
       d="m 6150,11100 c 0,82.843 -67.1573,150 -150,150 -82.8427,0 -150,-67.157 -150,-150 0,-82.843 67.1573,-150 150,-150 82.8427,0 150,67.157 150,150 z" />
    <!-- Circle -->
    <circle
       cx="5400"
       cy="10200"
       r="150"
       style="fill:#000000;stroke:#000000;stroke-width:7;"
       id="circle3871"
       d="m 5550,10200 c 0,82.843 -67.1573,150 -150,150 -82.8427,0 -150,-67.157 -150,-150 0,-82.843 67.1573,-150 150,-150 82.8427,0 150,67.157 150,150 z" />
    <!-- Circle -->
    <circle
       cx="5400"
       cy="10650"
       r="150"
       style="fill:#000000;stroke:#000000;stroke-width:7;"
       id="circle3873"
       d="m 5550,10650 c 0,82.843 -67.1573,150 -150,150 -82.8427,0 -150,-67.157 -150,-150 0,-82.843 67.1573,-150 150,-150 82.8427,0 150,67.157 150,150 z" />
    <!-- Circle -->
    <circle
       cx="5400"
       cy="11100"
       r="150"
       style="fill:#000000;stroke:#000000;stroke-width:7;"
       id="circle3875"
       d="m 5550,11100 c 0,82.843 -67.1573,150 -150,150 -82.8427,0 -150,-67.157 -150,-150 0,-82.843 67.1573,-150 150,-150 82.8427,0 150,67.157 150,150 z" />
    <!-- Circle -->
    <circle
       cx="4800"
       cy="10200"
       r="150"
       style="fill:#000000;stroke:#000000;stroke-width:7;"
       id="circle3877"
       d="m 4950,10200 c 0,82.843 -67.1573,150 -150,150 -82.8427,0 -150,-67.157 -150,-150 0,-82.843 67.1573,-150 150,-150 82.8427,0 150,67.157 150,150 z" />
    <!-- Circle -->
    <circle
       cx="4800"
       cy="10650"
       r="150"
       style="fill:#000000;stroke:#000000;stroke-width:7;"
       id="circle3879"
       d="m 4950,10650 c 0,82.843 -67.1573,150 -150,150 -82.8427,0 -150,-67.157 -150,-150 0,-82.843 67.1573,-150 150,-150 82.8427,0 150,67.157 150,150 z" />
    <!-- Circle -->
    <circle
       cx="4800"
       cy="11100"
       r="150"
       style="fill:#000000;stroke:#000000;stroke-width:7;"
       id="circle3881"
       d="m 4950,11100 c 0,82.843 -67.1573,150 -150,150 -82.8427,0 -150,-67.157 -150,-150 0,-82.843 67.1573,-150 150,-150 82.8427,0 150,67.157 150,150 z" />
    <!-- Circle -->
    <circle
       cx="4200"
       cy="10200"
       r="150"
       style="fill:#000000;stroke:#000000;stroke-width:7;"
       id="circle3883"
       d="m 4350,10200 c 0,82.843 -67.1573,150 -150,150 -82.8427,0 -150,-67.157 -150,-150 0,-82.843 67.1573,-150 150,-150 82.8427,0 150,67.157 150,150 z" />
    <!-- Circle -->
    <circle
       cx="4200"
       cy="10650"
       r="150"
       style="fill:#000000;stroke:#000000;stroke-width:7;"
       id="circle3885"
       d="m 4350,10650 c 0,82.843 -67.1573,150 -150,150 -82.8427,0 -150,-67.157 -150,-150 0,-82.843 67.1573,-150 150,-150 82.8427,0 150,67.157 150,150 z" />
    <!-- Circle -->
    <circle
       cx="4200"
       cy="11100"
       r="150"
       style="fill:#000000;stroke:#000000;stroke-width:7;"
       id="circle3887"
       d="m 4350,11100 c 0,82.843 -67.1573,150 -150,150 -82.8427,0 -150,-67.157 -150,-150 0,-82.843 67.1573,-150 150,-150 82.8427,0 150,67.157 150,150 z" />
    <!-- Circle -->
    <circle
       cx="3600"
       cy="10200"
       r="150"
       style="fill:#000000;stroke:#000000;stroke-width:7;"
       id="circle3889"
       d="m 3750,10200 c 0,82.843 -67.1573,150 -150,150 -82.8427,0 -150,-67.157 -150,-150 0,-82.843 67.1573,-150 150,-150 82.8427,0 150,67.157 150,150 z" />
    <!-- Circle -->
    <circle
       cx="3600"
       cy="10650"
       r="150"
       style="fill:#000000;stroke:#000000;stroke-width:7;"
       id="circle3891"
       d="m 3750,10650 c 0,82.843 -67.1573,150 -150,150 -82.8427,0 -150,-67.157 -150,-150 0,-82.843 67.1573,-150 150,-150 82.8427,0 150,67.157 150,150 z" />
    <!-- Circle -->
    <circle
       cx="3600"
       cy="11100"
       r="150"
       style="fill:#000000;stroke:#000000;stroke-width:7;"
       id="circle3893"
       d="m 3750,11100 c 0,82.843 -67.1573,150 -150,150 -82.8427,0 -150,-67.157 -150,-150 0,-82.843 67.1573,-150 150,-150 82.8427,0 150,67.157 150,150 z" />
    <!-- Circle -->
    <circle
       cx="3000"
       cy="10200"
       r="150"
       style="fill:#000000;stroke:#000000;stroke-width:7;"
       id="circle3895"
       d="m 3150,10200 c 0,82.843 -67.1573,150 -150,150 -82.8427,0 -150,-67.157 -150,-150 0,-82.843 67.1573,-150 150,-150 82.8427,0 150,67.157 150,150 z" />
    <!-- Circle -->
    <circle
       cx="3000"
       cy="10650"
       r="150"
       style="fill:#000000;stroke:#000000;stroke-width:7;"
       id="circle3897"
       d="m 3150,10650 c 0,82.843 -67.1573,150 -150,150 -82.8427,0 -150,-67.157 -150,-150 0,-82.843 67.1573,-150 150,-150 82.8427,0 150,67.157 150,150 z" />
    <!-- Circle -->
    <circle
       cx="3000"
       cy="11100"
       r="150"
       style="fill:#000000;stroke:#000000;stroke-width:7;"
       id="circle3899"
       d="m 3150,11100 c 0,82.843 -67.1573,150 -150,150 -82.8427,0 -150,-67.157 -150,-150 0,-82.843 67.1573,-150 150,-150 82.8427,0 150,67.157 150,150 z" />
    <!-- Circle -->
    <circle
       cx="2400"
       cy="10200"
       r="150"
       style="fill:#000000;stroke:#000000;stroke-width:7;"
       id="circle3901"
       d="m 2550,10200 c 0,82.843 -67.1573,150 -150,150 -82.8427,0 -150,-67.157 -150,-150 0,-82.843 67.1573,-150 150,-150 82.8427,0 150,67.157 150,150 z" />
    <!-- Circle -->
    <circle
       cx="2400"
       cy="10650"
       r="150"
       style="fill:#000000;stroke:#000000;stroke-width:7;"
       id="circle3903"
       d="m 2550,10650 c 0,82.843 -67.1573,150 -150,150 -82.8427,0 -150,-67.157 -150,-150 0,-82.843 67.1573,-150 150,-150 82.8427,0 150,67.157 150,150 z" />
    <!-- Circle -->
    <circle
       cx="2400"
       cy="11100"
       r="150"
       style="fill:#000000;stroke:#000000;stroke-width:7;"
       id="circle3905"
       d="m 2550,11100 c 0,82.843 -67.1573,150 -150,150 -82.8427,0 -150,-67.157 -150,-150 0,-82.843 67.1573,-150 150,-150 82.8427,0 150,67.157 150,150 z" />
    <!-- Circle -->
    <circle
       cx="1800"
       cy="11100"
       r="150"
       style="fill:#000000;stroke:#000000;stroke-width:7;"
       id="circle3907"
       d="m 1950,11100 c 0,82.843 -67.1573,150 -150,150 -82.8427,0 -150,-67.157 -150,-150 0,-82.843 67.1573,-150 150,-150 82.8427,0 150,67.157 150,150 z" />
    <!-- Circle -->
    <circle
       cx="1800"
       cy="10650"
       r="150"
       style="fill:#000000;stroke:#000000;stroke-width:7;"
       id="circle3909"
       d="m 1950,10650 c 0,82.843 -67.1573,150 -150,150 -82.8427,0 -150,-67.157 -150,-150 0,-82.843 67.1573,-150 150,-150 82.8427,0 150,67.157 150,150 z" />
    <!-- Circle -->
    <circle
       cx="1800"
       cy="10200"
       r="150"
       style="fill:#000000;stroke:#000000;stroke-width:7;"
       id="circle3911"
       d="m 1950,10200 c 0,82.843 -67.1573,150 -150,150 -82.8427,0 -150,-67.157 -150,-150 0,-82.843 67.1573,-150 150,-150 82.8427,0 150,67.157 150,150 z" />
    <!-- Circle -->
    <circle
       cx="1200"
       cy="11100"
       r="150"
       style="fill:#000000;stroke:#000000;stroke-width:7;"
       id="circle3913"
       d="m 1350,11100 c 0,82.843 -67.1573,150 -150,150 -82.8427,0 -150,-67.157 -150,-150 0,-82.843 67.1573,-150 150,-150 82.8427,0 150,67.157 150,150 z" />
    <!-- Circle -->
    <circle
       cx="1200"
       cy="10650"
       r="150"
       style="fill:#000000;stroke:#000000;stroke-width:7;"
       id="circle3915"
       d="m 1350,10650 c 0,82.843 -67.1573,150 -150,150 -82.8427,0 -150,-67.157 -150,-150 0,-82.843 67.1573,-150 150,-150 82.8427,0 150,67.157 150,150 z" />
    <!-- Circle -->
    <circle
       cx="9600"
       cy="12000"
       r="150"
       style="fill:#000000;stroke:#000000;stroke-width:7;"
       id="circle3917"
       d="m 9750,12000 c 0,82.843 -67.1573,150 -150,150 -82.8427,0 -150,-67.157 -150,-150 0,-82.843 67.1573,-150 150,-150 82.8427,0 150,67.157 150,150 z" />
    <!-- Circle -->
    <circle
       cx="9000"
       cy="12000"
       r="150"
       style="fill:#000000;stroke:#000000;stroke-width:7;"
       id="circle3919"
       d="m 9150,12000 c 0,82.843 -67.1573,150 -150,150 -82.8427,0 -150,-67.157 -150,-150 0,-82.843 67.1573,-150 150,-150 82.8427,0 150,67.157 150,150 z" />
    <!-- Circle -->
    <circle
       cx="8400"
       cy="12000"
       r="150"
       style="fill:#000000;stroke:#000000;stroke-width:7;"
       id="circle3921"
       d="m 8550,12000 c 0,82.843 -67.1573,150 -150,150 -82.8427,0 -150,-67.157 -150,-150 0,-82.843 67.1573,-150 150,-150 82.8427,0 150,67.157 150,150 z" />
    <!-- Circle -->
    <circle
       cx="7800"
       cy="12000"
       r="150"
       style="fill:#000000;stroke:#000000;stroke-width:7;"
       id="circle3923"
       d="m 7950,12000 c 0,82.843 -67.1573,150 -150,150 -82.8427,0 -150,-67.157 -150,-150 0,-82.843 67.1573,-150 150,-150 82.8427,0 150,67.157 150,150 z" />
    <!-- Circle -->
    <circle
       cx="7200"
       cy="12000"
       r="150"
       style="fill:#000000;stroke:#000000;stroke-width:7;"
       id="circle3925"
       d="m 7350,12000 c 0,82.843 -67.1573,150 -150,150 -82.8427,0 -150,-67.157 -150,-150 0,-82.843 67.1573,-150 150,-150 82.8427,0 150,67.157 150,150 z" />
    <!-- Circle -->
    <circle
       cx="6600"
       cy="12000"
       r="150"
       style="fill:#000000;stroke:#000000;stroke-width:7;"
       id="circle3927"
       d="m 6750,12000 c 0,82.843 -67.1573,150 -150,150 -82.8427,0 -150,-67.157 -150,-150 0,-82.843 67.1573,-150 150,-150 82.8427,0 150,67.157 150,150 z" />
    <!-- Circle -->
    <circle
       cx="6600"
       cy="12450"
       r="150"
       style="fill:#000000;stroke:#000000;stroke-width:7;"
       id="circle3929"
       d="m 6750,12450 c 0,82.843 -67.1573,150 -150,150 -82.8427,0 -150,-67.157 -150,-150 0,-82.843 67.1573,-150 150,-150 82.8427,0 150,67.157 150,150 z" />
    <!-- Circle -->
    <circle
       cx="6000"
       cy="12000"
       r="150"
       style="fill:#000000;stroke:#000000;stroke-width:7;"
       id="circle3931"
       d="m 6150,12000 c 0,82.843 -67.1573,150 -150,150 -82.8427,0 -150,-67.157 -150,-150 0,-82.843 67.1573,-150 150,-150 82.8427,0 150,67.157 150,150 z" />
    <!-- Circle -->
    <circle
       cx="6000"
       cy="12450"
       r="150"
       style="fill:#000000;stroke:#000000;stroke-width:7;"
       id="circle3933"
       d="m 6150,12450 c 0,82.843 -67.1573,150 -150,150 -82.8427,0 -150,-67.157 -150,-150 0,-82.843 67.1573,-150 150,-150 82.8427,0 150,67.157 150,150 z" />
    <!-- Circle -->
    <circle
       cx="5400"
       cy="12000"
       r="150"
       style="fill:#000000;stroke:#000000;stroke-width:7;"
       id="circle3935"
       d="m 5550,12000 c 0,82.843 -67.1573,150 -150,150 -82.8427,0 -150,-67.157 -150,-150 0,-82.843 67.1573,-150 150,-150 82.8427,0 150,67.157 150,150 z" />
    <!-- Circle -->
    <circle
       cx="5400"
       cy="12450"
       r="150"
       style="fill:#000000;stroke:#000000;stroke-width:7;"
       id="circle3937"
       d="m 5550,12450 c 0,82.843 -67.1573,150 -150,150 -82.8427,0 -150,-67.157 -150,-150 0,-82.843 67.1573,-150 150,-150 82.8427,0 150,67.157 150,150 z" />
    <!-- Circle -->
    <circle
       cx="4800"
       cy="12000"
       r="150"
       style="fill:#000000;stroke:#000000;stroke-width:7;"
       id="circle3939"
       d="m 4950,12000 c 0,82.843 -67.1573,150 -150,150 -82.8427,0 -150,-67.157 -150,-150 0,-82.843 67.1573,-150 150,-150 82.8427,0 150,67.157 150,150 z" />
    <!-- Circle -->
    <circle
       cx="4800"
       cy="12450"
       r="150"
       style="fill:#000000;stroke:#000000;stroke-width:7;"
       id="circle3941"
       d="m 4950,12450 c 0,82.843 -67.1573,150 -150,150 -82.8427,0 -150,-67.157 -150,-150 0,-82.843 67.1573,-150 150,-150 82.8427,0 150,67.157 150,150 z" />
    <!-- Circle -->
    <circle
       cx="4200"
       cy="12000"
       r="150"
       style="fill:#000000;stroke:#000000;stroke-width:7;"
       id="circle3943"
       d="m 4350,12000 c 0,82.843 -67.1573,150 -150,150 -82.8427,0 -150,-67.157 -150,-150 0,-82.843 67.1573,-150 150,-150 82.8427,0 150,67.157 150,150 z" />
    <!-- Circle -->
    <circle
       cx="4200"
       cy="12450"
       r="150"
       style="fill:#000000;stroke:#000000;stroke-width:7;"
       id="circle3945"
       d="m 4350,12450 c 0,82.843 -67.1573,150 -150,150 -82.8427,0 -150,-67.157 -150,-150 0,-82.843 67.1573,-150 150,-150 82.8427,0 150,67.157 150,150 z" />
    <!-- Circle -->
    <circle
       cx="3600"
       cy="12000"
       r="150"
       style="fill:#000000;stroke:#000000;stroke-width:7;"
       id="circle3947"
       d="m 3750,12000 c 0,82.843 -67.1573,150 -150,150 -82.8427,0 -150,-67.157 -150,-150 0,-82.843 67.1573,-150 150,-150 82.8427,0 150,67.157 150,150 z" />
    <!-- Circle -->
    <circle
       cx="3600"
       cy="12450"
       r="150"
       style="fill:#000000;stroke:#000000;stroke-width:7;"
       id="circle3949"
       d="m 3750,12450 c 0,82.843 -67.1573,150 -150,150 -82.8427,0 -150,-67.157 -150,-150 0,-82.843 67.1573,-150 150,-150 82.8427,0 150,67.157 150,150 z" />
    <!-- Circle -->
    <circle
       cx="3000"
       cy="12000"
       r="150"
       style="fill:#000000;stroke:#000000;stroke-width:7;"
       id="circle3951"
       d="m 3150,12000 c 0,82.843 -67.1573,150 -150,150 -82.8427,0 -150,-67.157 -150,-150 0,-82.843 67.1573,-150 150,-150 82.8427,0 150,67.157 150,150 z" />
    <!-- Circle -->
    <circle
       cx="3000"
       cy="12450"
       r="150"
       style="fill:#000000;stroke:#000000;stroke-width:7;"
       id="circle3953"
       d="m 3150,12450 c 0,82.843 -67.1573,150 -150,150 -82.8427,0 -150,-67.157 -150,-150 0,-82.843 67.1573,-150 150,-150 82.8427,0 150,67.157 150,150 z" />
    <!-- Circle -->
    <circle
       cx="2400"
       cy="12000"
       r="150"
       style="fill:#000000;stroke:#000000;stroke-width:7;"
       id="circle3955"
       d="m 2550,12000 c 0,82.843 -67.1573,150 -150,150 -82.8427,0 -150,-67.157 -150,-150 0,-82.843 67.1573,-150 150,-150 82.8427,0 150,67.157 150,150 z" />
    <!-- Circle -->
    <circle
       cx="2400"
       cy="12450"
       r="150"
       style="fill:#000000;stroke:#000000;stroke-width:7;"
       id="circle3957"
       d="m 2550,12450 c 0,82.843 -67.1573,150 -150,150 -82.8427,0 -150,-67.157 -150,-150 0,-82.843 67.1573,-150 150,-150 82.8427,0 150,67.157 150,150 z" />
    <!-- Circle -->
    <circle
       cx="1800"
       cy="12000"
       r="150"
       style="fill:#000000;stroke:#000000;stroke-width:7;"
       id="circle3959"
       d="m 1950,12000 c 0,82.843 -67.1573,150 -150,150 -82.8427,0 -150,-67.157 -150,-150 0,-82.843 67.1573,-150 150,-150 82.8427,0 150,67.157 150,150 z" />
    <!-- Circle -->
    <circle
       cx="1800"
       cy="12450"
       r="150"
       style="fill:#000000;stroke:#000000;stroke-width:7;"
       id="circle3961"
       d="m 1950,12450 c 0,82.843 -67.1573,150 -150,150 -82.8427,0 -150,-67.157 -150,-150 0,-82.843 67.1573,-150 150,-150 82.8427,0 150,67.157 150,150 z" />
    <!-- Circle -->
    <circle
       cx="1200"
       cy="12000"
       r="150"
       style="fill:#000000;stroke:#000000;stroke-width:7;"
       id="circle3963"
       d="m 1350,12000 c 0,82.843 -67.1573,150 -150,150 -82.8427,0 -150,-67.157 -150,-150 0,-82.843 67.1573,-150 150,-150 82.8427,0 150,67.157 150,150 z" />
    <!-- Circle -->
    <circle
       cx="1200"
       cy="12450"
       r="150"
       style="fill:#000000;stroke:#000000;stroke-width:7;"
       id="circle3965"
       d="m 1350,12450 c 0,82.843 -67.1573,150 -150,150 -82.8427,0 -150,-67.157 -150,-150 0,-82.843 67.1573,-150 150,-150 82.8427,0 150,67.157 150,150 z" />
    <!-- Circle -->
    <circle
       cx="600"
       cy="12000"
       r="150"
       style="fill:#000000;stroke:#000000;stroke-width:7;"
       id="circle3967"
       d="m 750,12000 c 0,82.843 -67.15729,150 -150,150 -82.84271,0 -150,-67.157 -150,-150 0,-82.843 67.15729,-150 150,-150 82.84271,0 150,67.157 150,150 z" />
    <!-- Line: box -->
    <rect
       x="8775"
       y="975"
       width="450"
       height="900"
       rx="225"
       style="stroke:#000000;stroke-width:7; stroke-linejoin:miter; stroke-linecap:butt; "
       id="rect3969" />
    <!-- Line: box -->
    <rect
       x="8175"
       y="975"
       width="450"
       height="1350"
       rx="225"
       style="stroke:#000000;stroke-width:7; stroke-linejoin:miter; stroke-linecap:butt; "
       id="rect3971" />
    <!-- Line: box -->
    <rect
       x="7575"
       y="975"
       width="450"
       height="1350"
       rx="225"
       style="stroke:#000000;stroke-width:7; stroke-linejoin:miter; stroke-linecap:butt; "
       id="rect3973" />
    <!-- Line: box -->
    <rect
       x="6975"
       y="975"
       width="450"
       height="1350"
       rx="225"
       style="stroke:#000000;stroke-width:7; stroke-linejoin:miter; stroke-linecap:butt; "
       id="rect3975" />
    <!-- Line: box -->
    <rect
       x="6975"
       y="2325"
       width="450"
       height="900"
       rx="225"
       style="stroke:#000000;stroke-width:7; stroke-linejoin:miter; stroke-linecap:butt; "
       id="rect3977" />
    <!-- Line: box -->
    <rect
       x="6375"
       y="975"
       width="450"
       height="1350"
       rx="225"
       style="stroke:#000000;stroke-width:7; stroke-linejoin:miter; stroke-linecap:butt; "
       id="rect3979" />
    <!-- Line: box -->
    <rect
       x="5775"
       y="975"
       width="450"
       height="1350"
       rx="225"
       style="stroke:#000000;stroke-width:7; stroke-linejoin:miter; stroke-linecap:butt; "
       id="rect3981" />
    <!-- Line: box -->
    <rect
       x="5775"
       y="2325"
       width="450"
       height="1350"
       rx="225"
       style="stroke:#000000;stroke-width:7; stroke-linejoin:miter; stroke-linecap:butt; "
       id="rect3983" />
    <!-- Line: box -->
    <rect
       x="5175"
       y="975"
       width="450"
       height="1350"
       rx="225"
       style="stroke:#000000;stroke-width:7; stroke-linejoin:miter; stroke-linecap:butt; "
       id="rect3985" />
    <!-- Line: box -->
    <rect
       x="5175"
       y="2325"
       width="450"
       height="1350"
       rx="225"
       style="stroke:#000000;stroke-width:7; stroke-linejoin:miter; stroke-linecap:butt; "
       id="rect3987" />
    <!-- Line: box -->
    <rect
       x="4575"
       y="1425"
       width="450"
       height="900"
       rx="225"
       style="stroke:#000000;stroke-width:7; stroke-linejoin:miter; stroke-linecap:butt; "
       id="rect3989" />
    <!-- Line: box -->
    <rect
       x="4575"
       y="2325"
       width="450"
       height="1350"
       rx="225"
       style="stroke:#000000;stroke-width:7; stroke-linejoin:miter; stroke-linecap:butt; "
       id="rect3991" />
    <!-- Line: box -->
    <rect
       x="3975"
       y="2325"
       width="450"
       height="1350"
       rx="225"
       style="stroke:#000000;stroke-width:7; stroke-linejoin:miter; stroke-linecap:butt; "
       id="rect3993" />
    <!-- Line: box -->
    <rect
       x="3375"
       y="2325"
       width="450"
       height="1350"
       rx="225"
       style="stroke:#000000;stroke-width:7; stroke-linejoin:miter; stroke-linecap:butt; "
       id="rect3995" />
    <!-- Line: box -->
    <rect
       x="2775"
       y="2775"
       width="450"
       height="900"
       rx="225"
       style="stroke:#000000;stroke-width:7; stroke-linejoin:miter; stroke-linecap:butt; "
       id="rect3997" />
    <!-- Line: box -->
    <rect
       x="8175"
       y="4875"
       width="450"
       height="900"
       rx="225"
       style="stroke:#000000;stroke-width:7; stroke-linejoin:miter; stroke-linecap:butt; "
       id="rect3999" />
    <!-- Line: box -->
    <rect
       x="7575"
       y="4875"
       width="450"
       height="1350"
       rx="225"
       style="stroke:#000000;stroke-width:7; stroke-linejoin:miter; stroke-linecap:butt; "
       id="rect4001" />
    <!-- Line: box -->
    <rect
       x="6975"
       y="4875"
       width="450"
       height="1350"
       rx="225"
       style="stroke:#000000;stroke-width:7; stroke-linejoin:miter; stroke-linecap:butt; "
       id="rect4003" />
    <!-- Line: box -->
    <rect
       x="6375"
       y="4875"
       width="450"
       height="1350"
       rx="225"
       style="stroke:#000000;stroke-width:7; stroke-linejoin:miter; stroke-linecap:butt; "
       id="rect4005" />
    <!-- Line: box -->
    <rect
       x="5775"
       y="4875"
       width="450"
       height="1350"
       rx="225"
       style="stroke:#000000;stroke-width:7; stroke-linejoin:miter; stroke-linecap:butt; "
       id="rect4007" />
    <!-- Line: box -->
    <rect
       x="5175"
       y="4875"
       width="450"
       height="1350"
       rx="225"
       style="stroke:#000000;stroke-width:7; stroke-linejoin:miter; stroke-linecap:butt; "
       id="rect4009" />
    <!-- Line: box -->
    <rect
       x="5175"
       y="6225"
       width="450"
       height="1350"
       rx="225"
       style="stroke:#000000;stroke-width:7; stroke-linejoin:miter; stroke-linecap:butt; "
       id="rect4011" />
    <!-- Line: box -->
    <rect
       x="4575"
       y="4875"
       width="450"
       height="1350"
       rx="225"
       style="stroke:#000000;stroke-width:7; stroke-linejoin:miter; stroke-linecap:butt; "
       id="rect4013" />
    <!-- Line: box -->
    <rect
       x="4575"
       y="6225"
       width="450"
       height="1350"
       rx="225"
       style="stroke:#000000;stroke-width:7; stroke-linejoin:miter; stroke-linecap:butt; "
       id="rect4015" />
    <!-- Line: box -->
    <rect
       x="3975"
       y="4875"
       width="450"
       height="1350"
       rx="225"
       style="stroke:#000000;stroke-width:7; stroke-linejoin:miter; stroke-linecap:butt; "
       id="rect4017" />
    <!-- Line: box -->
    <rect
       x="3975"
       y="6225"
       width="450"
       height="1350"
       rx="225"
       style="stroke:#000000;stroke-width:7; stroke-linejoin:miter; stroke-linecap:butt; "
       id="rect4019" />
    <!-- Line: box -->
    <rect
       x="3375"
       y="6225"
       width="450"
       height="1350"
       rx="225"
       style="stroke:#000000;stroke-width:7; stroke-linejoin:miter; stroke-linecap:butt; "
       id="rect4021" />
    <!-- Line: box -->
    <rect
       x="2775"
       y="6225"
       width="450"
       height="1350"
       rx="225"
       style="stroke:#000000;stroke-width:7; stroke-linejoin:miter; stroke-linecap:butt; "
       id="rect4023" />
    <!-- Line: box -->
    <rect
       x="2175"
       y="6225"
       width="450"
       height="1350"
       rx="225"
       style="stroke:#000000;stroke-width:7; stroke-linejoin:miter; stroke-linecap:butt; "
       id="rect4025" />
    <!-- Line: box -->
    <rect
       x="1575"
       y="6675"
       width="450"
       height="900"
       rx="225"
       style="stroke:#000000;stroke-width:7; stroke-linejoin:miter; stroke-linecap:butt; "
       id="rect4027" />
    <!-- Line: box -->
    <rect
       x="7575"
       y="7875"
       width="450"
       height="900"
       rx="225"
       style="stroke:#000000;stroke-width:7; stroke-linejoin:miter; stroke-linecap:butt; "
       id="rect4029" />
    <!-- Line: box -->
    <rect
       x="6975"
       y="7875"
       width="450"
       height="900"
       rx="225"
       style="stroke:#000000;stroke-width:7; stroke-linejoin:miter; stroke-linecap:butt; "
       id="rect4031" />
    <!-- Line: box -->
    <rect
       x="6375"
       y="7875"
       width="450"
       height="1350"
       rx="225"
       style="stroke:#000000;stroke-width:7; stroke-linejoin:miter; stroke-linecap:butt; "
       id="rect4033" />
    <!-- Line: box -->
    <rect
       x="5775"
       y="7875"
       width="450"
       height="1350"
       rx="225"
       style="stroke:#000000;stroke-width:7; stroke-linejoin:miter; stroke-linecap:butt; "
       id="rect4035" />
    <!-- Line: box -->
    <rect
       x="5175"
       y="7875"
       width="450"
       height="1350"
       rx="225"
       style="stroke:#000000;stroke-width:7; stroke-linejoin:miter; stroke-linecap:butt; "
       id="rect4037" />
    <!-- Line: box -->
    <rect
       x="4575"
       y="7875"
       width="450"
       height="1350"
       rx="225"
       style="stroke:#000000;stroke-width:7; stroke-linejoin:miter; stroke-linecap:butt; "
       id="rect4039" />
    <!-- Line: box -->
    <rect
       x="3975"
       y="7875"
       width="450"
       height="1350"
       rx="225"
       style="stroke:#000000;stroke-width:7; stroke-linejoin:miter; stroke-linecap:butt; "
       id="rect4041" />
    <!-- Line: box -->
    <rect
       x="3375"
       y="7875"
       width="450"
       height="1350"
       rx="225"
       style="stroke:#000000;stroke-width:7; stroke-linejoin:miter; stroke-linecap:butt; "
       id="rect4043" />
    <!-- Line: box -->
    <rect
       x="2775"
       y="8325"
       width="450"
       height="900"
       rx="225"
       style="stroke:#000000;stroke-width:7; stroke-linejoin:miter; stroke-linecap:butt; "
       id="rect4045" />
    <!-- Line: box -->
    <rect
       x="2175"
       y="8325"
       width="450"
       height="900"
       rx="225"
       style="stroke:#000000;stroke-width:7; stroke-linejoin:miter; stroke-linecap:butt; "
       id="rect4047" />
    <!-- Line: box -->
    <rect
       x="6375"
       y="2325"
       width="450"
       height="1350"
       rx="225"
       style="stroke:#000000;stroke-width:7; stroke-linejoin:miter; stroke-linecap:butt; "
       id="rect4049" />
    <!-- Line: box -->
    <rect
       x="5775"
       y="6225"
       width="450"
       height="900"
       rx="225"
       style="stroke:#000000;stroke-width:7; stroke-linejoin:miter; stroke-linecap:butt; "
       id="rect4051" />
    <!-- Line: box -->
    <rect
       x="6975"
       y="9975"
       width="450"
       height="900"
       rx="225"
       style="stroke:#000000;stroke-width:7; stroke-linejoin:miter; stroke-linecap:butt; "
       id="rect4053" />
    <!-- Line: box -->
    <rect
       x="6375"
       y="9975"
       width="450"
       height="900"
       rx="225"
       style="stroke:#000000;stroke-width:7; stroke-linejoin:miter; stroke-linecap:butt; "
       id="rect4055" />
    <!-- Line: box -->
    <rect
       x="5775"
       y="9975"
       width="450"
       height="1350"
       rx="225"
       style="stroke:#000000;stroke-width:7; stroke-linejoin:miter; stroke-linecap:butt; "
       id="rect4057" />
    <!-- Line: box -->
    <rect
       x="5175"
       y="9975"
       width="450"
       height="1350"
       rx="225"
       style="stroke:#000000;stroke-width:7; stroke-linejoin:miter; stroke-linecap:butt; "
       id="rect4059" />
    <!-- Line: box -->
    <rect
       x="4575"
       y="9975"
       width="450"
       height="1350"
       rx="225"
       style="stroke:#000000;stroke-width:7; stroke-linejoin:miter; stroke-linecap:butt; "
       id="rect4061" />
    <!-- Line: box -->
    <rect
       x="3975"
       y="9975"
       width="450"
       height="1350"
       rx="225"
       style="stroke:#000000;stroke-width:7; stroke-linejoin:miter; stroke-linecap:butt; "
       id="rect4063" />
    <!-- Line: box -->
    <rect
       x="3375"
       y="9975"
       width="450"
       height="1350"
       rx="225"
       style="stroke:#000000;stroke-width:7; stroke-linejoin:miter; stroke-linecap:butt; "
       id="rect4065" />
    <!-- Line: box -->
    <rect
       x="2775"
       y="9975"
       width="450"
       height="1350"
       rx="225"
       style="stroke:#000000;stroke-width:7; stroke-linejoin:miter; stroke-linecap:butt; "
       id="rect4067" />
    <!-- Line: box -->
    <rect
       x="2175"
       y="9975"
       width="450"
       height="1350"
       rx="225"
       style="stroke:#000000;stroke-width:7; stroke-linejoin:miter; stroke-linecap:butt; "
       id="rect4069" />
    <!-- Line: box -->
    <rect
       x="1575"
       y="9975"
       width="450"
       height="1350"
       rx="225"
       style="stroke:#000000;stroke-width:7; stroke-linejoin:miter; stroke-linecap:butt; "
       id="rect4071" />
    <!-- Line: box -->
    <rect
       x="975"
       y="10425"
       width="450"
       height="900"
       rx="225"
       style="stroke:#000000;stroke-width:7; stroke-linejoin:miter; stroke-linecap:butt; "
       id="rect4073" />
  </g>
</svg>
