<?xml version="1.0" encoding="UTF-8" standalone="no"?>
<!-- Creator: fig2dev Version 3.2 Patchlevel 5 -->

<!-- CreationDate: Sun Apr 18 19:49:08 2010 -->

<!-- Magnification: 1.000 -->

<svg
   xmlns:dc="http://purl.org/dc/elements/1.1/"
   xmlns:cc="http://creativecommons.org/ns#"
   xmlns:rdf="http://www.w3.org/1999/02/22-rdf-syntax-ns#"
   xmlns:svg="http://www.w3.org/2000/svg"
   xmlns="http://www.w3.org/2000/svg"
   xmlns:sodipodi="http://sodipodi.sourceforge.net/DTD/sodipodi-0.dtd"
   xmlns:inkscape="http://www.inkscape.org/namespaces/inkscape"
   width="652.80066"
   height="359.18594"
   viewBox="442 963 8663.0925 4790.7917"
   id="svg3533"
   version="1.1"
   inkscape:version="0.48.3.1 r9886"
   sodipodi:docname="Wallace_tree_8x8_trimmed.svg"
   inkscape:export-filename="/home/nuno/Dropbox/sharelatex/pdp-report/latex/figures/Wallace_tree_8x8_trimmed.png"
   inkscape:export-xdpi="90"
   inkscape:export-ydpi="90">
  <metadata
     id="metadata4079">
    <rdf:RDF>
      <cc:Work
         rdf:about="">
        <dc:format>image/svg+xml</dc:format>
        <dc:type
           rdf:resource="http://purl.org/dc/dcmitype/StillImage" />
        <dc:title />
      </cc:Work>
    </rdf:RDF>
  </metadata>
  <defs
     id="defs4077" />
  <sodipodi:namedview
     pagecolor="#ffffff"
     bordercolor="#666666"
     borderopacity="1"
     objecttolerance="10"
     gridtolerance="10"
     guidetolerance="10"
     inkscape:pageopacity="0"
     inkscape:pageshadow="2"
     inkscape:window-width="1371"
     inkscape:window-height="876"
     id="namedview4075"
     showgrid="true"
     inkscape:zoom="0.59549591"
     inkscape:cx="767.10217"
     inkscape:cy="15.716097"
     inkscape:window-x="69"
     inkscape:window-y="24"
     inkscape:window-maximized="1"
     inkscape:current-layer="svg3533"
     fit-margin-top="100"
     fit-margin-left="0"
     fit-margin-right="0"
     fit-margin-bottom="0">
    <inkscape:grid
       type="xygrid"
       id="grid3066"
       empspacing="5"
       visible="true"
       enabled="true"
       snapvisiblegridlinesonly="true" />
  </sodipodi:namedview>
  <circle
     sodipodi:ry="150"
     sodipodi:rx="150"
     sodipodi:cy="1200"
     sodipodi:cx="9600"
     d="m 9750,1200 c 0,82.8427 -67.1573,150 -150,150 -82.8427,0 -150,-67.1573 -150,-150 0,-82.8427 67.1573,-150 150,-150 82.8427,0 150,67.1573 150,150 z"
     id="circle3537"
     style="fill:#000000;stroke:#000000;stroke-width:7"
     r="150"
     cy="1200"
     cx="9600"
     transform="translate(-626.45368,1250.2915)" />
  <circle
     sodipodi:ry="150"
     sodipodi:rx="150"
     sodipodi:cy="1200"
     sodipodi:cx="9000"
     d="m 9150,1200 c 0,82.8427 -67.1573,150 -150,150 -82.8427,0 -150,-67.1573 -150,-150 0,-82.8427 67.1573,-150 150,-150 82.8427,0 150,67.1573 150,150 z"
     id="circle3539"
     style="fill:#000000;stroke:#000000;stroke-width:7"
     r="150"
     cy="1200"
     cx="9000"
     transform="translate(-626.45368,1250.2915)" />
  <circle
     sodipodi:ry="150"
     sodipodi:rx="150"
     sodipodi:cy="1200"
     sodipodi:cx="8400"
     d="m 8550,1200 c 0,82.8427 -67.1573,150 -150,150 -82.8427,0 -150,-67.1573 -150,-150 0,-82.8427 67.1573,-150 150,-150 82.8427,0 150,67.1573 150,150 z"
     id="circle3541"
     style="fill:#000000;stroke:#000000;stroke-width:7"
     r="150"
     cy="1200"
     cx="8400"
     transform="translate(-626.45368,1250.2915)" />
  <circle
     sodipodi:ry="150"
     sodipodi:rx="150"
     sodipodi:cy="1200"
     sodipodi:cx="7800"
     d="m 7950,1200 c 0,82.8427 -67.1573,150 -150,150 -82.8427,0 -150,-67.1573 -150,-150 0,-82.8427 67.1573,-150 150,-150 82.8427,0 150,67.1573 150,150 z"
     id="circle3543"
     style="fill:#000000;stroke:#000000;stroke-width:7"
     r="150"
     cy="1200"
     cx="7800"
     transform="translate(-626.45368,1250.2915)" />
  <circle
     sodipodi:ry="150"
     sodipodi:rx="150"
     sodipodi:cy="1200"
     sodipodi:cx="7200"
     d="m 7350,1200 c 0,82.8427 -67.1573,150 -150,150 -82.8427,0 -150,-67.1573 -150,-150 0,-82.8427 67.1573,-150 150,-150 82.8427,0 150,67.1573 150,150 z"
     id="circle3545"
     style="fill:#000000;stroke:#000000;stroke-width:7"
     r="150"
     cy="1200"
     cx="7200"
     transform="translate(-626.45368,1250.2915)" />
  <circle
     sodipodi:ry="150"
     sodipodi:rx="150"
     sodipodi:cy="1200"
     sodipodi:cx="6600"
     d="m 6750,1200 c 0,82.8427 -67.1573,150 -150,150 -82.8427,0 -150,-67.1573 -150,-150 0,-82.8427 67.1573,-150 150,-150 82.8427,0 150,67.1573 150,150 z"
     id="circle3547"
     style="fill:#000000;stroke:#000000;stroke-width:7"
     r="150"
     cy="1200"
     cx="6600"
     transform="translate(-626.45368,1250.2915)" />
  <circle
     sodipodi:ry="150"
     sodipodi:rx="150"
     sodipodi:cy="1200"
     sodipodi:cx="6000"
     d="m 6150,1200 c 0,82.8427 -67.1573,150 -150,150 -82.8427,0 -150,-67.1573 -150,-150 0,-82.8427 67.1573,-150 150,-150 82.8427,0 150,67.1573 150,150 z"
     id="circle3549"
     style="fill:#000000;stroke:#000000;stroke-width:7"
     r="150"
     cy="1200"
     cx="6000"
     transform="translate(-626.45368,1250.2915)" />
  <circle
     sodipodi:ry="150"
     sodipodi:rx="150"
     sodipodi:cy="1200"
     sodipodi:cx="5400"
     d="m 5550,1200 c 0,82.8427 -67.1573,150 -150,150 -82.8427,0 -150,-67.1573 -150,-150 0,-82.8427 67.1573,-150 150,-150 82.8427,0 150,67.1573 150,150 z"
     id="circle3551"
     style="fill:#000000;stroke:#000000;stroke-width:7"
     r="150"
     cy="1200"
     cx="5400"
     transform="translate(-626.45368,1250.2915)" />
  <circle
     sodipodi:ry="150"
     sodipodi:rx="150"
     sodipodi:cy="1650"
     sodipodi:cx="9000"
     d="m 9150,1650 c 0,82.8427 -67.1573,150 -150,150 -82.8427,0 -150,-67.1573 -150,-150 0,-82.8427 67.1573,-150 150,-150 82.8427,0 150,67.1573 150,150 z"
     id="circle3553"
     style="fill:#000000;stroke:#000000;stroke-width:7"
     r="150"
     cy="1650"
     cx="9000"
     transform="translate(-626.45368,1250.2915)" />
  <circle
     sodipodi:ry="150"
     sodipodi:rx="150"
     sodipodi:cy="1650"
     sodipodi:cx="8400"
     d="m 8550,1650 c 0,82.8427 -67.1573,150 -150,150 -82.8427,0 -150,-67.1573 -150,-150 0,-82.8427 67.1573,-150 150,-150 82.8427,0 150,67.1573 150,150 z"
     id="circle3555"
     style="fill:#000000;stroke:#000000;stroke-width:7"
     r="150"
     cy="1650"
     cx="8400"
     transform="translate(-626.45368,1250.2915)" />
  <circle
     sodipodi:ry="150"
     sodipodi:rx="150"
     sodipodi:cy="1650"
     sodipodi:cx="7800"
     d="m 7950,1650 c 0,82.8427 -67.1573,150 -150,150 -82.8427,0 -150,-67.1573 -150,-150 0,-82.8427 67.1573,-150 150,-150 82.8427,0 150,67.1573 150,150 z"
     id="circle3557"
     style="fill:#000000;stroke:#000000;stroke-width:7"
     r="150"
     cy="1650"
     cx="7800"
     transform="translate(-626.45368,1250.2915)" />
  <circle
     sodipodi:ry="150"
     sodipodi:rx="150"
     sodipodi:cy="1650"
     sodipodi:cx="7200"
     d="m 7350,1650 c 0,82.8427 -67.1573,150 -150,150 -82.8427,0 -150,-67.1573 -150,-150 0,-82.8427 67.1573,-150 150,-150 82.8427,0 150,67.1573 150,150 z"
     id="circle3559"
     style="fill:#000000;stroke:#000000;stroke-width:7"
     r="150"
     cy="1650"
     cx="7200"
     transform="translate(-626.45368,1250.2915)" />
  <circle
     sodipodi:ry="150"
     sodipodi:rx="150"
     sodipodi:cy="1650"
     sodipodi:cx="6600"
     d="m 6750,1650 c 0,82.8427 -67.1573,150 -150,150 -82.8427,0 -150,-67.1573 -150,-150 0,-82.8427 67.1573,-150 150,-150 82.8427,0 150,67.1573 150,150 z"
     id="circle3561"
     style="fill:#000000;stroke:#000000;stroke-width:7"
     r="150"
     cy="1650"
     cx="6600"
     transform="translate(-626.45368,1250.2915)" />
  <circle
     sodipodi:ry="150"
     sodipodi:rx="150"
     sodipodi:cy="1650"
     sodipodi:cx="6000"
     d="m 6150,1650 c 0,82.8427 -67.1573,150 -150,150 -82.8427,0 -150,-67.1573 -150,-150 0,-82.8427 67.1573,-150 150,-150 82.8427,0 150,67.1573 150,150 z"
     id="circle3563"
     style="fill:#000000;stroke:#000000;stroke-width:7"
     r="150"
     cy="1650"
     cx="6000"
     transform="translate(-626.45368,1250.2915)" />
  <circle
     sodipodi:ry="150"
     sodipodi:rx="150"
     sodipodi:cy="1650"
     sodipodi:cx="5400"
     d="m 5550,1650 c 0,82.8427 -67.1573,150 -150,150 -82.8427,0 -150,-67.1573 -150,-150 0,-82.8427 67.1573,-150 150,-150 82.8427,0 150,67.1573 150,150 z"
     id="circle3565"
     style="fill:#000000;stroke:#000000;stroke-width:7"
     r="150"
     cy="1650"
     cx="5400"
     transform="translate(-626.45368,1250.2915)" />
  <circle
     sodipodi:ry="150"
     sodipodi:rx="150"
     sodipodi:cy="1650"
     sodipodi:cx="4800"
     d="m 4950,1650 c 0,82.8427 -67.1573,150 -150,150 -82.8427,0 -150,-67.1573 -150,-150 0,-82.8427 67.1573,-150 150,-150 82.8427,0 150,67.1573 150,150 z"
     id="circle3567"
     style="fill:#000000;stroke:#000000;stroke-width:7"
     r="150"
     cy="1650"
     cx="4800"
     transform="translate(-626.45368,1250.2915)" />
  <circle
     sodipodi:ry="150"
     sodipodi:rx="150"
     sodipodi:cy="2100"
     sodipodi:cx="8400"
     d="m 8550,2100 c 0,82.8427 -67.1573,150 -150,150 -82.8427,0 -150,-67.1573 -150,-150 0,-82.8427 67.1573,-150 150,-150 82.8427,0 150,67.1573 150,150 z"
     id="circle3569"
     style="fill:#000000;stroke:#000000;stroke-width:7"
     r="150"
     cy="2100"
     cx="8400"
     transform="translate(-626.45368,1250.2915)" />
  <circle
     sodipodi:ry="150"
     sodipodi:rx="150"
     sodipodi:cy="2100"
     sodipodi:cx="7800"
     d="m 7950,2100 c 0,82.8427 -67.1573,150 -150,150 -82.8427,0 -150,-67.1573 -150,-150 0,-82.8427 67.1573,-150 150,-150 82.8427,0 150,67.1573 150,150 z"
     id="circle3571"
     style="fill:#000000;stroke:#000000;stroke-width:7"
     r="150"
     cy="2100"
     cx="7800"
     transform="translate(-626.45368,1250.2915)" />
  <circle
     sodipodi:ry="150"
     sodipodi:rx="150"
     sodipodi:cy="2100"
     sodipodi:cx="7200"
     d="m 7350,2100 c 0,82.8427 -67.1573,150 -150,150 -82.8427,0 -150,-67.1573 -150,-150 0,-82.8427 67.1573,-150 150,-150 82.8427,0 150,67.1573 150,150 z"
     id="circle3573"
     style="fill:#000000;stroke:#000000;stroke-width:7"
     r="150"
     cy="2100"
     cx="7200"
     transform="translate(-626.45368,1250.2915)" />
  <circle
     sodipodi:ry="150"
     sodipodi:rx="150"
     sodipodi:cy="2100"
     sodipodi:cx="6600"
     d="m 6750,2100 c 0,82.8427 -67.1573,150 -150,150 -82.8427,0 -150,-67.1573 -150,-150 0,-82.8427 67.1573,-150 150,-150 82.8427,0 150,67.1573 150,150 z"
     id="circle3575"
     style="fill:#000000;stroke:#000000;stroke-width:7"
     r="150"
     cy="2100"
     cx="6600"
     transform="translate(-626.45368,1250.2915)" />
  <circle
     sodipodi:ry="150"
     sodipodi:rx="150"
     sodipodi:cy="2100"
     sodipodi:cx="6000"
     d="m 6150,2100 c 0,82.8427 -67.1573,150 -150,150 -82.8427,0 -150,-67.1573 -150,-150 0,-82.8427 67.1573,-150 150,-150 82.8427,0 150,67.1573 150,150 z"
     id="circle3577"
     style="fill:#000000;stroke:#000000;stroke-width:7"
     r="150"
     cy="2100"
     cx="6000"
     transform="translate(-626.45368,1250.2915)" />
  <circle
     sodipodi:ry="150"
     sodipodi:rx="150"
     sodipodi:cy="2100"
     sodipodi:cx="5400"
     d="m 5550,2100 c 0,82.8427 -67.1573,150 -150,150 -82.8427,0 -150,-67.1573 -150,-150 0,-82.8427 67.1573,-150 150,-150 82.8427,0 150,67.1573 150,150 z"
     id="circle3579"
     style="fill:#000000;stroke:#000000;stroke-width:7"
     r="150"
     cy="2100"
     cx="5400"
     transform="translate(-626.45368,1250.2915)" />
  <circle
     sodipodi:ry="150"
     sodipodi:rx="150"
     sodipodi:cy="2100"
     sodipodi:cx="4800"
     d="m 4950,2100 c 0,82.8427 -67.1573,150 -150,150 -82.8427,0 -150,-67.1573 -150,-150 0,-82.8427 67.1573,-150 150,-150 82.8427,0 150,67.1573 150,150 z"
     id="circle3581"
     style="fill:#000000;stroke:#000000;stroke-width:7"
     r="150"
     cy="2100"
     cx="4800"
     transform="translate(-626.45368,1250.2915)" />
  <circle
     sodipodi:ry="150"
     sodipodi:rx="150"
     sodipodi:cy="2100"
     sodipodi:cx="4200"
     d="m 4350,2100 c 0,82.8427 -67.1573,150 -150,150 -82.8427,0 -150,-67.1573 -150,-150 0,-82.8427 67.1573,-150 150,-150 82.8427,0 150,67.1573 150,150 z"
     id="circle3583"
     style="fill:#000000;stroke:#000000;stroke-width:7"
     r="150"
     cy="2100"
     cx="4200"
     transform="translate(-626.45368,1250.2915)" />
  <circle
     sodipodi:ry="150"
     sodipodi:rx="150"
     sodipodi:cy="2550"
     sodipodi:cx="7800"
     d="m 7950,2550 c 0,82.8427 -67.1573,150 -150,150 -82.8427,0 -150,-67.1573 -150,-150 0,-82.8427 67.1573,-150 150,-150 82.8427,0 150,67.1573 150,150 z"
     id="circle3585"
     style="fill:#000000;stroke:#000000;stroke-width:7"
     r="150"
     cy="2550"
     cx="7800"
     transform="translate(-626.45368,1250.2915)" />
  <circle
     sodipodi:ry="150"
     sodipodi:rx="150"
     sodipodi:cy="2550"
     sodipodi:cx="7200"
     d="m 7350,2550 c 0,82.8427 -67.1573,150 -150,150 -82.8427,0 -150,-67.1573 -150,-150 0,-82.8427 67.1573,-150 150,-150 82.8427,0 150,67.1573 150,150 z"
     id="circle3587"
     style="fill:#000000;stroke:#000000;stroke-width:7"
     r="150"
     cy="2550"
     cx="7200"
     transform="translate(-626.45368,1250.2915)" />
  <circle
     sodipodi:ry="150"
     sodipodi:rx="150"
     sodipodi:cy="2550"
     sodipodi:cx="6600"
     d="m 6750,2550 c 0,82.8427 -67.1573,150 -150,150 -82.8427,0 -150,-67.1573 -150,-150 0,-82.8427 67.1573,-150 150,-150 82.8427,0 150,67.1573 150,150 z"
     id="circle3589"
     style="fill:#000000;stroke:#000000;stroke-width:7"
     r="150"
     cy="2550"
     cx="6600"
     transform="translate(-626.45368,1250.2915)" />
  <circle
     sodipodi:ry="150"
     sodipodi:rx="150"
     sodipodi:cy="2550"
     sodipodi:cx="6000"
     d="m 6150,2550 c 0,82.8427 -67.1573,150 -150,150 -82.8427,0 -150,-67.1573 -150,-150 0,-82.8427 67.1573,-150 150,-150 82.8427,0 150,67.1573 150,150 z"
     id="circle3591"
     style="fill:#000000;stroke:#000000;stroke-width:7"
     r="150"
     cy="2550"
     cx="6000"
     transform="translate(-626.45368,1250.2915)" />
  <circle
     sodipodi:ry="150"
     sodipodi:rx="150"
     sodipodi:cy="2550"
     sodipodi:cx="5400"
     d="m 5550,2550 c 0,82.8427 -67.1573,150 -150,150 -82.8427,0 -150,-67.1573 -150,-150 0,-82.8427 67.1573,-150 150,-150 82.8427,0 150,67.1573 150,150 z"
     id="circle3593"
     style="fill:#000000;stroke:#000000;stroke-width:7"
     r="150"
     cy="2550"
     cx="5400"
     transform="translate(-626.45368,1250.2915)" />
  <circle
     sodipodi:ry="150"
     sodipodi:rx="150"
     sodipodi:cy="2550"
     sodipodi:cx="4800"
     d="m 4950,2550 c 0,82.8427 -67.1573,150 -150,150 -82.8427,0 -150,-67.1573 -150,-150 0,-82.8427 67.1573,-150 150,-150 82.8427,0 150,67.1573 150,150 z"
     id="circle3595"
     style="fill:#000000;stroke:#000000;stroke-width:7"
     r="150"
     cy="2550"
     cx="4800"
     transform="translate(-626.45368,1250.2915)" />
  <circle
     sodipodi:ry="150"
     sodipodi:rx="150"
     sodipodi:cy="2550"
     sodipodi:cx="4200"
     d="m 4350,2550 c 0,82.8427 -67.1573,150 -150,150 -82.8427,0 -150,-67.1573 -150,-150 0,-82.8427 67.1573,-150 150,-150 82.8427,0 150,67.1573 150,150 z"
     id="circle3597"
     style="fill:#000000;stroke:#000000;stroke-width:7"
     r="150"
     cy="2550"
     cx="4200"
     transform="translate(-626.45368,1250.2915)" />
  <circle
     sodipodi:ry="150"
     sodipodi:rx="150"
     sodipodi:cy="2550"
     sodipodi:cx="3600"
     d="m 3750,2550 c 0,82.8427 -67.1573,150 -150,150 -82.8427,0 -150,-67.1573 -150,-150 0,-82.8427 67.1573,-150 150,-150 82.8427,0 150,67.1573 150,150 z"
     id="circle3599"
     style="fill:#000000;stroke:#000000;stroke-width:7"
     r="150"
     cy="2550"
     cx="3600"
     transform="translate(-626.45368,1250.2915)" />
  <circle
     sodipodi:ry="150"
     sodipodi:rx="150"
     sodipodi:cy="3000"
     sodipodi:cx="7200"
     d="m 7350,3000 c 0,82.8427 -67.1573,150 -150,150 -82.8427,0 -150,-67.1573 -150,-150 0,-82.8427 67.1573,-150 150,-150 82.8427,0 150,67.1573 150,150 z"
     id="circle3601"
     style="fill:#000000;stroke:#000000;stroke-width:7"
     r="150"
     cy="3000"
     cx="7200"
     transform="translate(-626.45368,1250.2915)" />
  <circle
     sodipodi:ry="150"
     sodipodi:rx="150"
     sodipodi:cy="3000"
     sodipodi:cx="6600"
     d="m 6750,3000 c 0,82.8427 -67.1573,150 -150,150 -82.8427,0 -150,-67.1573 -150,-150 0,-82.8427 67.1573,-150 150,-150 82.8427,0 150,67.1573 150,150 z"
     id="circle3603"
     style="fill:#000000;stroke:#000000;stroke-width:7"
     r="150"
     cy="3000"
     cx="6600"
     transform="translate(-626.45368,1250.2915)" />
  <circle
     sodipodi:ry="150"
     sodipodi:rx="150"
     sodipodi:cy="3000"
     sodipodi:cx="6000"
     d="m 6150,3000 c 0,82.8427 -67.1573,150 -150,150 -82.8427,0 -150,-67.1573 -150,-150 0,-82.8427 67.1573,-150 150,-150 82.8427,0 150,67.1573 150,150 z"
     id="circle3605"
     style="fill:#000000;stroke:#000000;stroke-width:7"
     r="150"
     cy="3000"
     cx="6000"
     transform="translate(-626.45368,1250.2915)" />
  <circle
     sodipodi:ry="150"
     sodipodi:rx="150"
     sodipodi:cy="3000"
     sodipodi:cx="5400"
     d="m 5550,3000 c 0,82.8427 -67.1573,150 -150,150 -82.8427,0 -150,-67.1573 -150,-150 0,-82.8427 67.1573,-150 150,-150 82.8427,0 150,67.1573 150,150 z"
     id="circle3607"
     style="fill:#000000;stroke:#000000;stroke-width:7"
     r="150"
     cy="3000"
     cx="5400"
     transform="translate(-626.45368,1250.2915)" />
  <circle
     sodipodi:ry="150"
     sodipodi:rx="150"
     sodipodi:cy="3000"
     sodipodi:cx="4800"
     d="m 4950,3000 c 0,82.8427 -67.1573,150 -150,150 -82.8427,0 -150,-67.1573 -150,-150 0,-82.8427 67.1573,-150 150,-150 82.8427,0 150,67.1573 150,150 z"
     id="circle3609"
     style="fill:#000000;stroke:#000000;stroke-width:7"
     r="150"
     cy="3000"
     cx="4800"
     transform="translate(-626.45368,1250.2915)" />
  <circle
     sodipodi:ry="150"
     sodipodi:rx="150"
     sodipodi:cy="3000"
     sodipodi:cx="4200"
     d="m 4350,3000 c 0,82.8427 -67.1573,150 -150,150 -82.8427,0 -150,-67.1573 -150,-150 0,-82.8427 67.1573,-150 150,-150 82.8427,0 150,67.1573 150,150 z"
     id="circle3611"
     style="fill:#000000;stroke:#000000;stroke-width:7"
     r="150"
     cy="3000"
     cx="4200"
     transform="translate(-626.45368,1250.2915)" />
  <circle
     sodipodi:ry="150"
     sodipodi:rx="150"
     sodipodi:cy="3000"
     sodipodi:cx="3600"
     d="m 3750,3000 c 0,82.8427 -67.1573,150 -150,150 -82.8427,0 -150,-67.1573 -150,-150 0,-82.8427 67.1573,-150 150,-150 82.8427,0 150,67.1573 150,150 z"
     id="circle3613"
     style="fill:#000000;stroke:#000000;stroke-width:7"
     r="150"
     cy="3000"
     cx="3600"
     transform="translate(-626.45368,1250.2915)" />
  <circle
     sodipodi:ry="150"
     sodipodi:rx="150"
     sodipodi:cy="3000"
     sodipodi:cx="3000"
     d="m 3150,3000 c 0,82.8427 -67.1573,150 -150,150 -82.8427,0 -150,-67.1573 -150,-150 0,-82.8427 67.1573,-150 150,-150 82.8427,0 150,67.1573 150,150 z"
     id="circle3615"
     style="fill:#000000;stroke:#000000;stroke-width:7"
     r="150"
     cy="3000"
     cx="3000"
     transform="translate(-626.45368,1250.2915)" />
  <circle
     sodipodi:ry="150"
     sodipodi:rx="150"
     sodipodi:cy="3450"
     sodipodi:cx="6600"
     d="m 6750,3450 c 0,82.8427 -67.1573,150 -150,150 -82.8427,0 -150,-67.1573 -150,-150 0,-82.8427 67.1573,-150 150,-150 82.8427,0 150,67.1573 150,150 z"
     id="circle3617"
     style="fill:#000000;stroke:#000000;stroke-width:7"
     r="150"
     cy="3450"
     cx="6600"
     transform="translate(-626.45368,1250.2915)" />
  <circle
     sodipodi:ry="150"
     sodipodi:rx="150"
     sodipodi:cy="3450"
     sodipodi:cx="6000"
     d="m 6150,3450 c 0,82.8427 -67.1573,150 -150,150 -82.8427,0 -150,-67.1573 -150,-150 0,-82.8427 67.1573,-150 150,-150 82.8427,0 150,67.1573 150,150 z"
     id="circle3619"
     style="fill:#000000;stroke:#000000;stroke-width:7"
     r="150"
     cy="3450"
     cx="6000"
     transform="translate(-626.45368,1250.2915)" />
  <circle
     sodipodi:ry="150"
     sodipodi:rx="150"
     sodipodi:cy="3450"
     sodipodi:cx="5400"
     d="m 5550,3450 c 0,82.8427 -67.1573,150 -150,150 -82.8427,0 -150,-67.1573 -150,-150 0,-82.8427 67.1573,-150 150,-150 82.8427,0 150,67.1573 150,150 z"
     id="circle3621"
     style="fill:#000000;stroke:#000000;stroke-width:7"
     r="150"
     cy="3450"
     cx="5400"
     transform="translate(-626.45368,1250.2915)" />
  <circle
     sodipodi:ry="150"
     sodipodi:rx="150"
     sodipodi:cy="3450"
     sodipodi:cx="4800"
     d="m 4950,3450 c 0,82.8427 -67.1573,150 -150,150 -82.8427,0 -150,-67.1573 -150,-150 0,-82.8427 67.1573,-150 150,-150 82.8427,0 150,67.1573 150,150 z"
     id="circle3623"
     style="fill:#000000;stroke:#000000;stroke-width:7"
     r="150"
     cy="3450"
     cx="4800"
     transform="translate(-626.45368,1250.2915)" />
  <circle
     sodipodi:ry="150"
     sodipodi:rx="150"
     sodipodi:cy="3450"
     sodipodi:cx="4200"
     d="m 4350,3450 c 0,82.8427 -67.1573,150 -150,150 -82.8427,0 -150,-67.1573 -150,-150 0,-82.8427 67.1573,-150 150,-150 82.8427,0 150,67.1573 150,150 z"
     id="circle3625"
     style="fill:#000000;stroke:#000000;stroke-width:7"
     r="150"
     cy="3450"
     cx="4200"
     transform="translate(-626.45368,1250.2915)" />
  <circle
     sodipodi:ry="150"
     sodipodi:rx="150"
     sodipodi:cy="3450"
     sodipodi:cx="3600"
     d="m 3750,3450 c 0,82.8427 -67.1573,150 -150,150 -82.8427,0 -150,-67.1573 -150,-150 0,-82.8427 67.1573,-150 150,-150 82.8427,0 150,67.1573 150,150 z"
     id="circle3627"
     style="fill:#000000;stroke:#000000;stroke-width:7"
     r="150"
     cy="3450"
     cx="3600"
     transform="translate(-626.45368,1250.2915)" />
  <circle
     sodipodi:ry="150"
     sodipodi:rx="150"
     sodipodi:cy="3450"
     sodipodi:cx="3000"
     d="m 3150,3450 c 0,82.8427 -67.1573,150 -150,150 -82.8427,0 -150,-67.1573 -150,-150 0,-82.8427 67.1573,-150 150,-150 82.8427,0 150,67.1573 150,150 z"
     id="circle3629"
     style="fill:#000000;stroke:#000000;stroke-width:7"
     r="150"
     cy="3450"
     cx="3000"
     transform="translate(-626.45368,1250.2915)" />
  <circle
     sodipodi:ry="150"
     sodipodi:rx="150"
     sodipodi:cy="3450"
     sodipodi:cx="2400"
     d="m 2550,3450 c 0,82.8427 -67.1573,150 -150,150 -82.8427,0 -150,-67.1573 -150,-150 0,-82.8427 67.1573,-150 150,-150 82.8427,0 150,67.1573 150,150 z"
     id="circle3631"
     style="fill:#000000;stroke:#000000;stroke-width:7"
     r="150"
     cy="3450"
     cx="2400"
     transform="translate(-626.45368,1250.2915)" />
  <circle
     sodipodi:ry="150"
     sodipodi:rx="150"
     sodipodi:cy="3900"
     sodipodi:cx="6000"
     d="m 6150,3900 c 0,82.8427 -67.1573,150 -150,150 -82.8427,0 -150,-67.1573 -150,-150 0,-82.8427 67.1573,-150 150,-150 82.8427,0 150,67.1573 150,150 z"
     id="circle3633"
     style="fill:#000000;stroke:#000000;stroke-width:7"
     r="150"
     cy="3900"
     cx="6000"
     transform="translate(-626.45368,1250.2915)" />
  <circle
     sodipodi:ry="150"
     sodipodi:rx="150"
     sodipodi:cy="4350"
     sodipodi:cx="5400"
     d="m 5550,4350 c 0,82.8427 -67.1573,150 -150,150 -82.8427,0 -150,-67.1573 -150,-150 0,-82.8427 67.1573,-150 150,-150 82.8427,0 150,67.1573 150,150 z"
     id="circle3635"
     style="fill:#000000;stroke:#000000;stroke-width:7"
     r="150"
     cy="4350"
     cx="5400"
     transform="translate(-626.45368,1250.2915)" />
  <circle
     sodipodi:ry="150"
     sodipodi:rx="150"
     sodipodi:cy="3900"
     sodipodi:cx="5400"
     d="m 5550,3900 c 0,82.8427 -67.1573,150 -150,150 -82.8427,0 -150,-67.1573 -150,-150 0,-82.8427 67.1573,-150 150,-150 82.8427,0 150,67.1573 150,150 z"
     id="circle3637"
     style="fill:#000000;stroke:#000000;stroke-width:7"
     r="150"
     cy="3900"
     cx="5400"
     transform="translate(-626.45368,1250.2915)" />
  <circle
     sodipodi:ry="150"
     sodipodi:rx="150"
     sodipodi:cy="3900"
     sodipodi:cx="4800"
     d="m 4950,3900 c 0,82.8427 -67.1573,150 -150,150 -82.8427,0 -150,-67.1573 -150,-150 0,-82.8427 67.1573,-150 150,-150 82.8427,0 150,67.1573 150,150 z"
     id="circle3639"
     style="fill:#000000;stroke:#000000;stroke-width:7"
     r="150"
     cy="3900"
     cx="4800"
     transform="translate(-626.45368,1250.2915)" />
  <circle
     sodipodi:ry="150"
     sodipodi:rx="150"
     sodipodi:cy="3900"
     sodipodi:cx="4200"
     d="m 4350,3900 c 0,82.8427 -67.1573,150 -150,150 -82.8427,0 -150,-67.1573 -150,-150 0,-82.8427 67.1573,-150 150,-150 82.8427,0 150,67.1573 150,150 z"
     id="circle3641"
     style="fill:#000000;stroke:#000000;stroke-width:7"
     r="150"
     cy="3900"
     cx="4200"
     transform="translate(-626.45368,1250.2915)" />
  <circle
     sodipodi:ry="150"
     sodipodi:rx="150"
     sodipodi:cy="3900"
     sodipodi:cx="3600"
     d="m 3750,3900 c 0,82.8427 -67.1573,150 -150,150 -82.8427,0 -150,-67.1573 -150,-150 0,-82.8427 67.1573,-150 150,-150 82.8427,0 150,67.1573 150,150 z"
     id="circle3643"
     style="fill:#000000;stroke:#000000;stroke-width:7"
     r="150"
     cy="3900"
     cx="3600"
     transform="translate(-626.45368,1250.2915)" />
  <circle
     sodipodi:ry="150"
     sodipodi:rx="150"
     sodipodi:cy="3900"
     sodipodi:cx="3000"
     d="m 3150,3900 c 0,82.8427 -67.1573,150 -150,150 -82.8427,0 -150,-67.1573 -150,-150 0,-82.8427 67.1573,-150 150,-150 82.8427,0 150,67.1573 150,150 z"
     id="circle3645"
     style="fill:#000000;stroke:#000000;stroke-width:7"
     r="150"
     cy="3900"
     cx="3000"
     transform="translate(-626.45368,1250.2915)" />
  <circle
     sodipodi:ry="150"
     sodipodi:rx="150"
     sodipodi:cy="3900"
     sodipodi:cx="2400"
     d="m 2550,3900 c 0,82.8427 -67.1573,150 -150,150 -82.8427,0 -150,-67.1573 -150,-150 0,-82.8427 67.1573,-150 150,-150 82.8427,0 150,67.1573 150,150 z"
     id="circle3647"
     style="fill:#000000;stroke:#000000;stroke-width:7"
     r="150"
     cy="3900"
     cx="2400"
     transform="translate(-626.45368,1250.2915)" />
  <circle
     sodipodi:ry="150"
     sodipodi:rx="150"
     sodipodi:cy="3900"
     sodipodi:cx="1800"
     d="m 1950,3900 c 0,82.8427 -67.1573,150 -150,150 -82.8427,0 -150,-67.1573 -150,-150 0,-82.8427 67.1573,-150 150,-150 82.8427,0 150,67.1573 150,150 z"
     id="circle3649"
     style="fill:#000000;stroke:#000000;stroke-width:7"
     r="150"
     cy="3900"
     cx="1800"
     transform="translate(-626.45368,1250.2915)" />
  <circle
     sodipodi:ry="150"
     sodipodi:rx="150"
     sodipodi:cy="4350"
     sodipodi:cx="4800"
     d="m 4950,4350 c 0,82.8427 -67.1573,150 -150,150 -82.8427,0 -150,-67.1573 -150,-150 0,-82.8427 67.1573,-150 150,-150 82.8427,0 150,67.1573 150,150 z"
     id="circle3651"
     style="fill:#000000;stroke:#000000;stroke-width:7"
     r="150"
     cy="4350"
     cx="4800"
     transform="translate(-626.45368,1250.2915)" />
  <circle
     sodipodi:ry="150"
     sodipodi:rx="150"
     sodipodi:cy="4350"
     sodipodi:cx="4200"
     d="m 4350,4350 c 0,82.8427 -67.1573,150 -150,150 -82.8427,0 -150,-67.1573 -150,-150 0,-82.8427 67.1573,-150 150,-150 82.8427,0 150,67.1573 150,150 z"
     id="circle3653"
     style="fill:#000000;stroke:#000000;stroke-width:7"
     r="150"
     cy="4350"
     cx="4200"
     transform="translate(-626.45368,1250.2915)" />
  <circle
     sodipodi:ry="150"
     sodipodi:rx="150"
     sodipodi:cy="4350"
     sodipodi:cx="3600"
     d="m 3750,4350 c 0,82.8427 -67.1573,150 -150,150 -82.8427,0 -150,-67.1573 -150,-150 0,-82.8427 67.1573,-150 150,-150 82.8427,0 150,67.1573 150,150 z"
     id="circle3655"
     style="fill:#000000;stroke:#000000;stroke-width:7"
     r="150"
     cy="4350"
     cx="3600"
     transform="translate(-626.45368,1250.2915)" />
  <circle
     sodipodi:ry="150"
     sodipodi:rx="150"
     sodipodi:cy="4350"
     sodipodi:cx="3000"
     d="m 3150,4350 c 0,82.8427 -67.1573,150 -150,150 -82.8427,0 -150,-67.1573 -150,-150 0,-82.8427 67.1573,-150 150,-150 82.8427,0 150,67.1573 150,150 z"
     id="circle3657"
     style="fill:#000000;stroke:#000000;stroke-width:7"
     r="150"
     cy="4350"
     cx="3000"
     transform="translate(-626.45368,1250.2915)" />
  <circle
     sodipodi:ry="150"
     sodipodi:rx="150"
     sodipodi:cy="4350"
     sodipodi:cx="2400"
     d="m 2550,4350 c 0,82.8427 -67.1573,150 -150,150 -82.8427,0 -150,-67.1573 -150,-150 0,-82.8427 67.1573,-150 150,-150 82.8427,0 150,67.1573 150,150 z"
     id="circle3659"
     style="fill:#000000;stroke:#000000;stroke-width:7"
     r="150"
     cy="4350"
     cx="2400"
     transform="translate(-626.45368,1250.2915)" />
  <circle
     sodipodi:ry="150"
     sodipodi:rx="150"
     sodipodi:cy="4350"
     sodipodi:cx="1800"
     d="m 1950,4350 c 0,82.8427 -67.1573,150 -150,150 -82.8427,0 -150,-67.1573 -150,-150 0,-82.8427 67.1573,-150 150,-150 82.8427,0 150,67.1573 150,150 z"
     id="circle3661"
     style="fill:#000000;stroke:#000000;stroke-width:7"
     r="150"
     cy="4350"
     cx="1800"
     transform="translate(-626.45368,1250.2915)" />
  <circle
     sodipodi:ry="150"
     sodipodi:rx="150"
     sodipodi:cy="4350"
     sodipodi:cx="1200"
     d="m 1350,4350 c 0,82.8427 -67.1573,150 -150,150 -82.8427,0 -150,-67.1573 -150,-150 0,-82.8427 67.1573,-150 150,-150 82.8427,0 150,67.1573 150,150 z"
     id="circle3663"
     style="fill:#000000;stroke:#000000;stroke-width:7"
     r="150"
     cy="4350"
     cx="1200"
     transform="translate(-626.45368,1250.2915)" />
  <circle
     sodipodi:ry="150"
     sodipodi:rx="150"
     sodipodi:cy="1650"
     sodipodi:cx="8400"
     d="m 8550,1650 c 0,82.8427 -67.1573,150 -150,150 -82.8427,0 -150,-67.1573 -150,-150 0,-82.8427 67.1573,-150 150,-150 82.8427,0 150,67.1573 150,150 z"
     id="circle3555-6"
     style="fill:#000000;stroke:#000000;stroke-width:7"
     r="150"
     cy="1650"
     cx="8400"
     transform="translate(566.36708,-454.28622)" />
  <circle
     sodipodi:ry="150"
     sodipodi:rx="150"
     sodipodi:cy="1650"
     sodipodi:cx="7800"
     d="m 7950,1650 c 0,82.8427 -67.1573,150 -150,150 -82.8427,0 -150,-67.1573 -150,-150 0,-82.8427 67.1573,-150 150,-150 82.8427,0 150,67.1573 150,150 z"
     id="circle3557-8"
     style="fill:#000000;stroke:#000000;stroke-width:7"
     r="150"
     cy="1650"
     cx="7800"
     transform="translate(566.36708,-454.28622)" />
  <circle
     sodipodi:ry="150"
     sodipodi:rx="150"
     sodipodi:cy="1650"
     sodipodi:cx="7200"
     d="m 7350,1650 c 0,82.8427 -67.1573,150 -150,150 -82.8427,0 -150,-67.1573 -150,-150 0,-82.8427 67.1573,-150 150,-150 82.8427,0 150,67.1573 150,150 z"
     id="circle3559-1"
     style="fill:#000000;stroke:#000000;stroke-width:7"
     r="150"
     cy="1650"
     cx="7200"
     transform="translate(566.36708,-454.28622)" />
  <circle
     sodipodi:ry="150"
     sodipodi:rx="150"
     sodipodi:cy="1650"
     sodipodi:cx="6600"
     d="m 6750,1650 c 0,82.8427 -67.1573,150 -150,150 -82.8427,0 -150,-67.1573 -150,-150 0,-82.8427 67.1573,-150 150,-150 82.8427,0 150,67.1573 150,150 z"
     id="circle3561-6"
     style="fill:#000000;stroke:#000000;stroke-width:7"
     r="150"
     cy="1650"
     cx="6600"
     transform="translate(566.36708,-454.28622)" />
  <circle
     sodipodi:ry="150"
     sodipodi:rx="150"
     sodipodi:cy="1650"
     sodipodi:cx="6000"
     d="m 6150,1650 c 0,82.8427 -67.1573,150 -150,150 -82.8427,0 -150,-67.1573 -150,-150 0,-82.8427 67.1573,-150 150,-150 82.8427,0 150,67.1573 150,150 z"
     id="circle3563-3"
     style="fill:#000000;stroke:#000000;stroke-width:7"
     r="150"
     cy="1650"
     cx="6000"
     transform="translate(566.36708,-454.28622)" />
  <circle
     sodipodi:ry="150"
     sodipodi:rx="150"
     sodipodi:cy="1650"
     sodipodi:cx="5400"
     d="m 5550,1650 c 0,82.8427 -67.1573,150 -150,150 -82.8427,0 -150,-67.1573 -150,-150 0,-82.8427 67.1573,-150 150,-150 82.8427,0 150,67.1573 150,150 z"
     id="circle3565-7"
     style="fill:#000000;stroke:#000000;stroke-width:7"
     r="150"
     cy="1650"
     cx="5400"
     transform="translate(566.36708,-454.28622)" />
  <circle
     sodipodi:ry="150"
     sodipodi:rx="150"
     sodipodi:cy="2100"
     sodipodi:cx="8400"
     d="m 8550,2100 c 0,82.8427 -67.1573,150 -150,150 -82.8427,0 -150,-67.1573 -150,-150 0,-82.8427 67.1573,-150 150,-150 82.8427,0 150,67.1573 150,150 z"
     id="circle3569-8"
     style="fill:#000000;stroke:#000000;stroke-width:7"
     r="150"
     cy="2100"
     cx="8400"
     transform="translate(566.36708,-454.28622)" />
  <circle
     sodipodi:ry="150"
     sodipodi:rx="150"
     sodipodi:cy="2100"
     sodipodi:cx="7800"
     d="m 7950,2100 c 0,82.8427 -67.1573,150 -150,150 -82.8427,0 -150,-67.1573 -150,-150 0,-82.8427 67.1573,-150 150,-150 82.8427,0 150,67.1573 150,150 z"
     id="circle3571-8"
     style="fill:#000000;stroke:#000000;stroke-width:7"
     r="150"
     cy="2100"
     cx="7800"
     transform="translate(566.36708,-454.28622)" />
  <circle
     sodipodi:ry="150"
     sodipodi:rx="150"
     sodipodi:cy="2100"
     sodipodi:cx="7200"
     d="m 7350,2100 c 0,82.8427 -67.1573,150 -150,150 -82.8427,0 -150,-67.1573 -150,-150 0,-82.8427 67.1573,-150 150,-150 82.8427,0 150,67.1573 150,150 z"
     id="circle3573-0"
     style="fill:#000000;stroke:#000000;stroke-width:7"
     r="150"
     cy="2100"
     cx="7200"
     transform="translate(566.36708,-454.28622)" />
  <circle
     sodipodi:ry="150"
     sodipodi:rx="150"
     sodipodi:cy="2100"
     sodipodi:cx="6600"
     d="m 6750,2100 c 0,82.8427 -67.1573,150 -150,150 -82.8427,0 -150,-67.1573 -150,-150 0,-82.8427 67.1573,-150 150,-150 82.8427,0 150,67.1573 150,150 z"
     id="circle3575-9"
     style="fill:#000000;stroke:#000000;stroke-width:7"
     r="150"
     cy="2100"
     cx="6600"
     transform="translate(566.36708,-454.28622)" />
  <circle
     sodipodi:ry="150"
     sodipodi:rx="150"
     sodipodi:cy="2100"
     sodipodi:cx="6000"
     d="m 6150,2100 c 0,82.8427 -67.1573,150 -150,150 -82.8427,0 -150,-67.1573 -150,-150 0,-82.8427 67.1573,-150 150,-150 82.8427,0 150,67.1573 150,150 z"
     id="circle3577-3"
     style="fill:#000000;stroke:#000000;stroke-width:7"
     r="150"
     cy="2100"
     cx="6000"
     transform="translate(566.36708,-454.28622)" />
  <circle
     sodipodi:ry="150"
     sodipodi:rx="150"
     sodipodi:cy="2100"
     sodipodi:cx="5400"
     d="m 5550,2100 c 0,82.8427 -67.1573,150 -150,150 -82.8427,0 -150,-67.1573 -150,-150 0,-82.8427 67.1573,-150 150,-150 82.8427,0 150,67.1573 150,150 z"
     id="circle3579-3"
     style="fill:#000000;stroke:#000000;stroke-width:7"
     r="150"
     cy="2100"
     cx="5400"
     transform="translate(566.36708,-454.28622)" />
  <circle
     sodipodi:ry="150"
     sodipodi:rx="150"
     sodipodi:cy="1650"
     sodipodi:cx="6000"
     d="m 6150,1650 c 0,82.8427 -67.1573,150 -150,150 -82.8427,0 -150,-67.1573 -150,-150 0,-82.8427 67.1573,-150 150,-150 82.8427,0 150,67.1573 150,150 z"
     id="circle3563-3-0"
     style="fill:#000000;stroke:#000000;stroke-width:7"
     r="150"
     cy="1650"
     cx="6000"
     transform="translate(-561.8208,-480.96205)" />
  <circle
     sodipodi:ry="150"
     sodipodi:rx="150"
     sodipodi:cy="1650"
     sodipodi:cx="5400"
     d="m 5550,1650 c 0,82.8427 -67.1573,150 -150,150 -82.8427,0 -150,-67.1573 -150,-150 0,-82.8427 67.1573,-150 150,-150 82.8427,0 150,67.1573 150,150 z"
     id="circle3565-7-0"
     style="fill:#000000;stroke:#000000;stroke-width:7"
     r="150"
     cy="1650"
     cx="5400"
     transform="translate(-561.8208,-480.96205)" />
  <circle
     sodipodi:ry="150"
     sodipodi:rx="150"
     sodipodi:cy="2100"
     sodipodi:cx="6000"
     d="m 6150,2100 c 0,82.8427 -67.1573,150 -150,150 -82.8427,0 -150,-67.1573 -150,-150 0,-82.8427 67.1573,-150 150,-150 82.8427,0 150,67.1573 150,150 z"
     id="circle3577-3-8"
     style="fill:#000000;stroke:#000000;stroke-width:7"
     r="150"
     cy="2100"
     cx="6000"
     transform="translate(-561.8208,-480.96205)" />
  <circle
     sodipodi:ry="150"
     sodipodi:rx="150"
     sodipodi:cy="2100"
     sodipodi:cx="5400"
     d="m 5550,2100 c 0,82.8427 -67.1573,150 -150,150 -82.8427,0 -150,-67.1573 -150,-150 0,-82.8427 67.1573,-150 150,-150 82.8427,0 150,67.1573 150,150 z"
     id="circle3579-3-8"
     style="fill:#000000;stroke:#000000;stroke-width:7"
     r="150"
     cy="2100"
     cx="5400"
     transform="translate(-561.8208,-480.96205)" />
  <path
     style="fill:none;stroke:#000000;stroke-width:54.1381073px;stroke-linecap:butt;stroke-linejoin:miter;stroke-opacity:1"
     d="m 420.04629,2048.4946 8703.13791,0 -263.7315,0 0,0"
     id="path3175"
     inkscape:connector-curvature="0" />
</svg>
